<?xml version="1.0" encoding="UTF-8" standalone="no"?>
<!-- Created with Inkscape (http://www.inkscape.org/) -->

<svg
   xmlns:osb="http://www.openswatchbook.org/uri/2009/osb"
   xmlns:dc="http://purl.org/dc/elements/1.1/"
   xmlns:cc="http://creativecommons.org/ns#"
   xmlns:rdf="http://www.w3.org/1999/02/22-rdf-syntax-ns#"
   xmlns:svg="http://www.w3.org/2000/svg"
   xmlns="http://www.w3.org/2000/svg"
   xmlns:xlink="http://www.w3.org/1999/xlink"
   xmlns:sodipodi="http://sodipodi.sourceforge.net/DTD/sodipodi-0.dtd"
   xmlns:inkscape="http://www.inkscape.org/namespaces/inkscape"
   width="210mm"
   height="297mm"
   viewBox="0 0 210 297"
   version="1.1"
   id="svg8"
   inkscape:version="0.92.4 (5da689c313, 2019-01-14)"
   sodipodi:docname="dibujo3.svg">
  <defs
     id="defs2">
    <font
       vert-adv-y="90"
       vert-origin-y="90"
       vert-origin-x="45"
       horiz-origin-y="0"
       horiz-origin-x="0"
       font-weight="400"
       font-variant="normal"
       horiz-adv-x="667"
       id="FontID2">
      <font-face
         id="font-face2"
         font-family="Arial">
        <font-face-src>
          <font-face-name
             name="Arial" />
        </font-face-src>
      </font-face>
      <missing-glyph
         id="missing-glyph6">
        <path
           id="path4"
           d="M0 0z" />
      </missing-glyph>
      <glyph
         id="glyph8"
         d=""
         horiz-adv-x="277"
         unicode=" " />
      <glyph
         id="glyph10"
         d="M-1.50338 0l274.672 716.002 104.169 0 291.493 -716.002 -107.83 0 -82.8386 216.999 -301.494 0 -77.6639 -216.999 -100.509 0zm206.007 293.998l243.995 0 -74.668 198.501c-22.4963,60.3314 -39.5019,110.172 -51.3329,149.499 -9.82646,-46.6702 -22.9974,-92.5016 -39.5019,-137.832l-78.4918 -210.169z"
         horiz-adv-x="667"
         unicode="A" />
      <glyph
         id="glyph12"
         d="M586.995 251.163l95.0072 -23.9997c-19.8381,-77.8273 -55.5053,-136.993 -107.002,-177.835 -51.4963,-40.831 -114.497,-61.3337 -189.001,-61.3337 -76.9993,0 -139.662,15.6766 -187.999,47.1714 -48.337,31.3314 -84.9956,76.8359 -110.172,136.339 -25.1653,59.656 -37.8242,123.495 -37.8242,191.823 0,74.5046 14.1623,139.51 42.6612,195.004 28.4989,55.5053 69.0031,97.6654 121.502,126.502 52.4986,28.8366 110.335,43.1623 173.336,43.1623 71.6612,0 131.829,-18.1604 180.493,-54.6665 48.8381,-36.4952 82.8386,-87.6646 102.001,-153.661l-92.9918 -22.006c-16.5045,52.0083 -40.6676,90.0069 -72.1733,113.669 -31.4948,23.8362 -71.1601,35.6672 -118.996,35.6672 -54.8408,0 -100.836,-13.1709 -137.668,-39.5019 -36.8329,-26.331 -62.837,-61.8348 -77.6639,-106.163 -15.0011,-44.5023 -22.5072,-90.3337 -22.5072,-137.505 0,-60.8325 8.8351,-113.996 26.5053,-159.326 17.6702,-45.5046 45.1668,-79.3416 82.5008,-101.838 37.334,-22.4963 77.6639,-33.6627 121.164,-33.6627 52.9997,0 97.6654,15.328 134.335,45.8314 36.6695,30.6668 61.4971,75.9971 74.4937,136.328z"
         horiz-adv-x="722"
         unicode="C" />
      <glyph
         id="glyph14"
         d="M79.0038 0l0 716.002 517 0 0 -84.0042 -422.004 0 0 -219.995 394.997 0 0 -84.0042 -394.997 0 0 -243.995 438.999 0 0 -84.0042 -533.995 0z"
         horiz-adv-x="667"
         unicode="E" />
      <glyph
         id="glyph16"
         d="M81.9997 0l0 716.002 483 0 0 -84.0042 -388.003 0 0 -223.002 336.006 0 0 -83.9933 -336.006 0 0 -325.003 -94.9964 0z"
         horiz-adv-x="610"
         unicode="F" />
      <glyph
         id="glyph18"
         d="M93.0027 0l0 716.002 94.9964 0 0 -716.002 -94.9964 0z"
         horiz-adv-x="277"
         unicode="I" />
      <glyph
         id="glyph20"
         d="M73.0012 0l0 716.002 94.9964 0 0 -355.005 355.67 355.005 128.332 0 -300.328 -290.338 313.325 -425.664 -124.999 0 -254.834 361.335 -117.166 -113.331 0 -248.004 -94.9964 0z"
         horiz-adv-x="667"
         unicode="K" />
      <glyph
         id="glyph22"
         d="M73.0012 0l0 716.002 94.9964 0 0 -631.998 351.999 0 0 -84.0042 -446.995 0z"
         horiz-adv-x="556"
         unicode="L" />
      <glyph
         id="glyph24"
         d="M75.9971 0l0 716.002 97.3386 0 375.66 -562.004 0 562.004 91.0091 0 0 -716.002 -97.3386 0 -375.671 562.004 0 -562.004 -90.9982 0z"
         horiz-adv-x="722"
         unicode="N" />
      <glyph
         id="glyph26"
         d="M47.9993 348.502c0,118.669 31.9959,211.661 95.8352,278.834 63.8284,67.162 146.166,100.661 247.165,100.661 66.1706,0 125.663,-15.8291 178.837,-47.3348 52.9997,-31.4948 93.493,-75.496 121.327,-131.993 27.8344,-56.3333 41.8333,-120.336 41.8333,-191.834 0,-72.5001 -14.6634,-137.505 -44.0012,-194.666 -29.3269,-57.3355 -70.8333,-100.672 -124.498,-129.999 -53.8276,-29.5012 -111.828,-44.1755 -174,-44.1755 -67.4997,0 -127.668,16.3411 -180.831,48.8381 -52.9997,32.497 -93.3296,76.8359 -120.663,133.169 -27.3332,56.1699 -41.0053,115.662 -41.0053,178.499zm98.0031 -1.66679c0,-86.1721 23.1608,-153.999 69.4933,-203.501 46.3325,-49.5027 104.507,-74.3303 174.501,-74.3303 71.3344,0 129.836,25.0019 176.005,74.9948 45.9948,50.0038 69.0031,121.001 69.0031,213.001 0,58.1635 -9.83735,109.006 -29.5012,152.332 -19.6747,43.3366 -48.5004,76.9993 -86.3356,100.836 -37.9985,23.8362 -80.4963,35.8306 -127.668,35.8306 -66.9986,0 -124.672,-22.9974 -172.998,-68.9922 -48.337,-46.0057 -72.5001,-122.667 -72.5001,-230.17z"
         horiz-adv-x="777"
         unicode="O" />
      <glyph
         id="glyph28"
         d="M76.9993 0l0 716.002 270.337 0c47.4982,0 83.8299,-2.33133 108.995,-6.83059 35.1661,-5.83923 64.6672,-17.0057 88.5035,-33.3359 23.8362,-16.5045 42.9989,-39.5019 57.4989,-69.0031 14.5,-29.5012 21.6683,-61.9982 21.6683,-97.502 0,-60.6691 -19.337,-112.165 -58.1635,-154.162 -38.674,-42.171 -108.843,-63.1639 -210.169,-63.1639l-183.674 0 0 -292.005 -94.9964 0zm94.9964 375.998l185.003 0c61.3337,0 104.67,11.3298 130.5,34.1638 25.6664,22.834 38.4997,54.8408 38.4997,96.3363 0,29.8389 -7.49512,55.5053 -22.6706,76.8359 -15.1646,21.3306 -35.1661,35.5038 -59.8303,42.3344 -15.9925,4.16154 -45.4937,6.32946 -88.3292,6.32946l-183.173 0 0 -256z"
         horiz-adv-x="667"
         unicode="P" />
      <glyph
         id="glyph30"
         d="M79.0038 0l0 716.002 317.334 0c63.8284,0 112.329,-6.50376 145.501,-19.337 33.1616,-12.8332 59.656,-35.5038 79.4941,-68.0008 19.8381,-32.497 29.6646,-68.502 29.6646,-107.83 0,-50.8318 -16.4936,-93.6673 -49.3284,-128.507 -32.8347,-34.8284 -83.5031,-56.8235 -152.168,-66.3231 25.1653,-12.0053 44.1646,-24.0105 57.1612,-35.6672 27.671,-25.3396 53.8385,-57.1721 78.3393,-95.3341l123.833 -195.004 -118.331 0 -94.6695 148.998c-27.4967,43.1732 -50.3306,75.9971 -68.1642,98.8311 -17.997,22.834 -34.0004,38.674 -48.1736,47.8359 -13.9989,8.99851 -28.4989,15.3389 -43.1623,18.9993 -10.6653,2.16792 -28.1612,3.33359 -52.662,3.33359l-109.671 0 0 -317.998 -94.9964 0zm94.9964 399.998l203.338 0c43.3257,0 76.9993,4.49925 101.326,13.4978 24.3374,8.8351 42.8355,23.1717 55.331,43.0098 12.6698,19.6638 19.0102,40.9944 19.0102,64.1661 0,33.8261 -12.1687,61.8239 -36.6695,83.6665 -24.5008,21.8317 -63.1639,32.6604 -116,32.6604l-226.335 0 0 -237.001z"
         horiz-adv-x="722"
         unicode="R" />
      <glyph
         id="glyph32"
         d="M45.9948 229.996l89.0046 8.00715c4.17243,-36.0049 13.9989,-65.5061 29.5012,-88.6669 15.5023,-22.9974 39.5019,-41.6698 71.999,-56.0064 32.497,-14.1623 69.1665,-21.3306 109.834,-21.3306 36.1683,0 68.0008,5.3381 95.6718,16.1668 27.6601,10.8396 48.1627,25.6664 61.6605,44.5023 13.4978,18.8359 20.3392,39.3276 20.3392,61.3337 0,22.3329 -6.50376,41.8333 -19.5004,58.6646 -13.0075,16.6679 -34.5015,30.6668 -64.5038,42.171 -19.1627,7.33171 -61.6714,18.9993 -127.504,34.8284 -65.8329,15.8291 -111.828,30.6668 -138.159,44.6657 -34.1747,17.997 -59.5034,40.3299 -76.1714,66.8352 -16.8313,26.5053 -25.1653,56.3333 -25.1653,89.168 0,36.3317 10.3276,70.1687 30.8302,101.5 20.5027,31.4948 50.3306,55.331 89.8326,71.6612 39.3385,16.3411 83.1654,24.5008 131.339,24.5008 52.9997,0 99.8333,-8.49738 140.327,-25.6664 40.5042,-16.9948 71.6721,-42.1601 93.5039,-75.496 21.8317,-33.1725 33.4993,-70.8333 35.1661,-112.83l-90.9982 -7.00489c-4.83697,45.1668 -21.3306,79.3307 -49.5027,102.339 -28.1612,23.1608 -69.831,34.665 -124.835,34.665 -57.3246,0 -99.1688,-10.5019 -125.325,-31.5057 -26.1676,-20.9929 -39.3385,-46.3325 -39.3385,-75.9971 0,-25.6664 9.33622,-46.8336 27.8344,-63.5016 18.3347,-16.4936 65.8329,-33.6627 142.832,-50.9952 76.9993,-17.5068 129.836,-32.6713 158.498,-45.668 41.5064,-19.1736 72.3367,-43.3366 92.1748,-72.8378 19.8272,-29.3269 29.6646,-63.1639 29.6646,-101.5 0,-38.162 -10.8396,-73.8292 -32.6713,-107.503 -21.8317,-33.6627 -52.9997,-59.8303 -93.8307,-78.4918 -40.831,-18.6724 -86.6733,-28.0087 -137.832,-28.0087 -64.6672,0 -118.833,9.51053 -162.507,28.3355 -43.8269,18.8359 -77.9907,47.1714 -102.829,85.1699 -25.0019,37.8351 -37.9985,80.6706 -39.3385,128.496z"
         horiz-adv-x="667"
         unicode="S" />
      <glyph
         id="glyph34"
         d="M258.996 0l0 631.998 -235.998 0 0 84.0042 567.004 0 0 -84.0042 -235.998 0 0 -631.998 -95.0072 0z"
         horiz-adv-x="610"
         unicode="T" />
      <glyph
         id="glyph36"
         d="M546 716.002l94.9964 0 0 -413.506c0,-71.999 -8.15966,-129.16 -24.3265,-171.495 -16.3411,-42.171 -45.668,-76.6725 -88.0024,-103.167 -42.4978,-26.5053 -98.0031,-39.8396 -167.006,-39.8396 -66.8243,0 -121.665,11.5041 -164.163,34.6758 -42.6612,23.1608 -73.0012,56.4967 -91.1616,100.334 -18.1713,43.8269 -27.3332,103.657 -27.3332,179.491l0 413.506 94.9964 0 0 -413.332c0,-62.1725 5.82833,-108.167 17.3325,-137.505 11.5041,-29.5012 31.168,-52.3351 59.3291,-68.1642 28.0087,-16.0034 62.3359,-23.9997 102.84,-23.9997 69.3299,0 118.833,15.8291 148.334,47.3348 29.5012,31.6691 44.1646,92.3273 44.1646,182.334l0 413.332z"
         horiz-adv-x="722"
         unicode="U" />
      <glyph
         id="glyph38"
         d="M404.998 190.003l85.9957 -12c-9.49603,-59.173 -33.4959,-105.342 -72.3304,-138.838 -38.8345,-33.4959 -86.669,-50.1612 -143.161,-50.1612 -70.8304,0 -127.842,23.1613 -170.834,69.4958 -43.1691,46.3345 -64.6651,112.665 -64.6651,199.003 0,55.9958 9.33067,104.834 27.8267,146.834 18.5078,41.8345 46.6652,73.3344 84.6729,94.1571 37.8306,21.0117 78.9918,31.5117 123.661,31.5117 56.173,0 102.33,-14.1732 137.999,-42.6731 35.8345,-28.4999 58.8305,-68.9997 68.8344,-121.334l-85.0036 -13.0039c-8.16139,34.8424 -22.4999,61.0037 -43.3227,78.6729 -20.6692,17.5039 -45.673,26.3267 -74.9997,26.3267 -44.3384,0 -80.3383,-15.8267 -108.177,-47.4919 -27.6613,-31.8306 -41.492,-81.8383 -41.492,-150.507 0,-69.6611 13.3346,-120.165 39.992,-151.665 26.8345,-31.4999 61.6769,-47.3266 104.504,-47.3266 34.6652,0 63.4958,10.5 86.5036,31.6652 23.1613,20.9999 37.8306,53.4919 43.9959,97.3343z"
         horiz-adv-x="500"
         unicode="c" />
      <glyph
         id="glyph40"
         d="M65.9997 0l0 518.998 79.0036 0 0 -73.6651c37.9959,56.5037 92.9996,84.6729 164.834,84.6729 31.3345,0 59.9998,-5.66927 86.1611,-16.8425 26.1731,-11.1614 45.8384,-25.996 58.8305,-44.1612 13.0039,-18.1653 22.1692,-39.8384 27.3424,-64.8305 3.16534,-16.3346 4.83069,-44.8345 4.83069,-85.4997l0 -318.672 -88.0036 0 0 315.329c0,35.8345 -3.3307,62.669 -10.1693,80.3383 -6.82674,17.6692 -18.9921,31.8306 -36.3306,42.4959 -17.3267,10.5 -37.8306,15.8385 -61.1691,15.8385 -37.3345,0 -69.4958,-11.8346 -96.661,-35.6692 -27.1652,-23.6692 -40.6652,-68.8344 -40.6652,-135.165l0 -283.168 -88.0036 0z"
         horiz-adv-x="556"
         unicode="n" />
      <glyph
         id="glyph42"
         d="M32.9999 259.499c0,95.8343 26.6692,166.83 80.1611,212.999 44.5038,38.3384 99.0114,57.5076 163.169,57.5076 71.1729,0 129.507,-23.3385 174.838,-70.0037 45.1652,-46.4998 67.8304,-111 67.8304,-193.169 0,-66.6612 -9.99209,-118.996 -29.9999,-157.169 -19.996,-38.1613 -49.1691,-67.8304 -87.4957,-88.9957 -38.1731,-21.1653 -80.0076,-31.6652 -125.173,-31.6652 -72.6611,0 -131.326,23.1613 -176.161,69.6611 -44.8345,46.4998 -67.169,113.503 -67.169,200.834zm89.9996 -0.165354c0,-66.3304 14.5039,-115.996 43.4998,-148.83 29.1731,-32.9999 65.669,-49.4998 109.83,-49.4998 43.6652,0 80.0076,16.4999 109.169,49.6652 28.9959,33.1652 43.4998,83.669 43.4998,151.499 0,64.0037 -14.6692,112.5 -43.8305,145.334 -29.1731,32.9999 -65.5037,49.4998 -108.838,49.4998 -44.1612,0 -80.6572,-16.3346 -109.83,-49.1691 -28.9959,-32.8345 -43.4998,-82.3343 -43.4998,-148.499z"
         horiz-adv-x="556"
         unicode="o" />
      <glyph
         id="glyph44"
         d="M-1.50338 0l274.672 716.002 104.169 0 291.493 -716.002 -107.83 0 -82.8386 216.999 -301.494 0 -77.6639 -216.999 -100.509 0zm206.007 293.998l243.995 0 -74.668 198.501c-22.4963,60.3314 -39.5019,110.172 -51.3329,149.499 -9.82646,-46.6702 -22.9974,-92.5016 -39.5019,-137.832l-78.4918 -210.169zm45.4937 466.005l64.0027 136.993 116 0 -107.002 -136.993 -73.0012 0z"
         horiz-adv-x="667"
         unicode="Á" />
      <glyph
         id="glyph46"
         d="M47.9993 348.502c0,118.669 31.9959,211.661 95.8352,278.834 63.8284,67.162 146.166,100.661 247.165,100.661 66.1706,0 125.663,-15.8291 178.837,-47.3348 52.9997,-31.4948 93.493,-75.496 121.327,-131.993 27.8344,-56.3333 41.8333,-120.336 41.8333,-191.834 0,-72.5001 -14.6634,-137.505 -44.0012,-194.666 -29.3269,-57.3355 -70.8333,-100.672 -124.498,-129.999 -53.8276,-29.5012 -111.828,-44.1755 -174,-44.1755 -67.4997,0 -127.668,16.3411 -180.831,48.8381 -52.9997,32.497 -93.3296,76.8359 -120.663,133.169 -27.3332,56.1699 -41.0053,115.662 -41.0053,178.499zm98.0031 -1.66679c0,-86.1721 23.1608,-153.999 69.4933,-203.501 46.3325,-49.5027 104.507,-74.3303 174.501,-74.3303 71.3344,0 129.836,25.0019 176.005,74.9948 45.9948,50.0038 69.0031,121.001 69.0031,213.001 0,58.1635 -9.83735,109.006 -29.5012,152.332 -19.6747,43.3366 -48.5004,76.9993 -86.3356,100.836 -37.9985,23.8362 -80.4963,35.8306 -127.668,35.8306 -66.9986,0 -124.672,-22.9974 -172.998,-68.9922 -48.337,-46.0057 -72.5001,-122.667 -72.5001,-230.17zm171.996 413.169l64.0027 136.993 116 0 -107.002 -136.993 -73.0012 0z"
         horiz-adv-x="777"
         unicode="Ó" />
    </font>
    <font
       vert-adv-y="90"
       vert-origin-y="90"
       vert-origin-x="45"
       horiz-origin-y="0"
       horiz-origin-x="0"
       font-weight="700"
       font-variant="normal"
       horiz-adv-x="722"
       id="FontID1">
      <font-face
         id="font-face49"
         font-family="Arial">
        <font-face-src>
          <font-face-name
             name="Arial Negrita" />
        </font-face-src>
      </font-face>
      <missing-glyph
         id="missing-glyph53">
        <path
           id="path51"
           d="M0 0z" />
      </missing-glyph>
      <glyph
         id="glyph55"
         d=""
         horiz-adv-x="277"
         unicode=" " />
      <glyph
         id="glyph57"
         d="M71.0079 0l0 137.008 136.992 0 0 -137.008 -136.992 0z"
         horiz-adv-x="277"
         unicode="." />
      <glyph
         id="glyph59"
         d="M274.504 720c69.3228,0 123.496,-24.8346 162.661,-74.5039 46.5039,-58.6614 69.8425,-156.157 69.8425,-292.157 0,-135.843 -23.5118,-233.512 -70.3465,-292.835 -38.8346,-49.0079 -92.8346,-73.5118 -162.157,-73.5118 -69.6693,0 -125.843,26.8346 -168.504,80.5039 -42.6614,53.6693 -64,149.512 -64,287.165 0,135.165 23.4961,232.504 70.3307,291.843 38.8346,48.9921 92.8346,73.4961 162.173,73.4961zm0 -114c-16.3307,0 -31.0079,-5.33858 -43.6693,-16 -12.8346,-10.5039 -22.8346,-29.4961 -29.8268,-56.9921 -9.33858,-35.5118 -14,-95.5118 -14,-179.669 0,-84.3307 4.15748,-142.173 12.4882,-173.669 8.33071,-31.4961 18.8346,-52.5039 31.5118,-63.0079 12.6614,-10.4882 27.1654,-15.6535 43.4961,-15.6535 16.3307,0 30.9921,5.32283 43.8268,16 12.6772,10.4882 22.6772,29.4961 29.6693,56.9921 9.33858,35.1654 14,95.0079 14,179.339 0,84.1575 -4.17323,142 -12.5039,173.496 -8.33071,31.4961 -18.8346,52.6614 -31.4961,63.1654 -12.6614,10.6614 -27.1654,16 -43.4961,16z"
         horiz-adv-x="556"
         unicode="0" />
      <glyph
         id="glyph61"
         d="M393 0l-136.999 0 0 518.329c-49.9989,-47.0012 -109.002,-81.8345 -176.998,-104.334l0 125.008c35.8289,11.659 74.6665,33.8267 116.502,66.6578 41.9902,32.6763 70.6622,70.8391 86.3255,114.334l111.17 0 0 -719.995z"
         horiz-adv-x="556"
         unicode="1" />
      <glyph
         id="glyph63"
         d="M506 127.008l0 -127.008 -480.992 0c5.16535,48.3307 20.8189,94 46.8189,137.165 26,43.1654 77.5118,100.504 154.173,172 61.8268,57.6693 99.6693,96.8346 113.669,117.339 18.8346,28.3307 28.3307,56.3307 28.3307,84.1575 0,30.6772 -8.17323,54.1732 -24.6614,70.6772 -16.3307,16.4882 -39.0079,24.6614 -67.8425,24.6614 -28.6614,0 -51.3228,-8.66142 -68.3307,-26 -16.8346,-17.1654 -26.5039,-45.8268 -29.1654,-86l-136.992 13.6693c8.15748,75.6693 33.6535,130 76.6614,162.992 42.9921,32.8346 96.6614,49.3386 161.165,49.3386 70.6614,0 126.173,-19.1654 166.661,-57.3386 40.3307,-38.1575 60.5039,-85.6535 60.5039,-142.488 0,-32.3465 -5.82677,-63.0079 -17.3386,-92.3465 -11.4961,-29.1654 -29.8268,-59.6535 -54.9921,-91.6535 -16.5039,-21.3386 -46.6614,-51.8425 -90,-91.6693 -43.4961,-39.8425 -71.0079,-66.1732 -82.5039,-79.3386 -11.6693,-12.9921 -20.9921,-25.8268 -28.1575,-38.1575l272.992 0z"
         horiz-adv-x="556"
         unicode="2" />
      <glyph
         id="glyph65"
         d="M718.003 0l-156.174 0 -61.8294 163 -287.163 0 -59.503 -163 -153.334 0 278.002 716.002 153.162 0 286.839 -716.002zm-265 283.998l-99.5023 265 -96.6709 -265 196.173 0z"
         horiz-adv-x="722"
         unicode="A" />
      <glyph
         id="glyph67"
         d="M530.999 263.999l140.005 -42.998c-21.499,-78.8296 -57.3425,-137.339 -107.34,-175.67 -49.9976,-38.1648 -113.328,-57.3306 -190.17,-57.3306 -95.1621,0 -173.325,32.4985 -234.655,97.4954 -61.1757,65.0088 -91.8409,153.838 -91.8409,266.666 0,119.173 30.8319,211.835 92.3408,277.844 61.4971,65.9969 142.493,98.9953 242.834,98.9953 87.6625,0 158.826,-25.9988 213.49,-77.8296 32.677,-30.6771 57.0092,-74.675 73.3417,-132.172l-143.005 -33.9984c-8.4996,36.9982 -26.1654,66.3302 -52.9975,87.8292 -26.9987,21.499 -59.6638,32.1651 -97.9953,32.1651 -53.176,0 -96.3407,-18.9991 -129.339,-57.1639 -33.1651,-37.9982 -49.6643,-99.6619 -49.6643,-185.003 0,-90.329 16.3326,-154.826 48.831,-193.157 32.6651,-38.4982 74.9964,-57.6758 127.161,-57.6758 38.5101,0 71.6752,12.1661 99.3405,36.6768 27.6653,24.4988 47.6644,62.8303 59.6638,115.328z"
         horiz-adv-x="722"
         unicode="C" />
      <glyph
         id="glyph69"
         d="M73.0014 0l0 716.002 529.999 0 0 -120.999 -384.998 0 0 -159.005 358.001 0 0 -120.999 -358.001 0 0 -194 399.001 0 0 -120.999 -544.003 0z"
         horiz-adv-x="667"
         unicode="E" />
      <glyph
         id="glyph71"
         d="M72.9965 0l0 716.002 492 0 0 -121.006 -346.995 0 0 -169.992 299.998 0 0 -121.006 -299.998 0 0 -303.997 -145.005 0z"
         horiz-adv-x="610"
         unicode="F" />
      <glyph
         id="glyph73"
         d="M67.997 0l0 716.002 145.002 0 0 -716.002 -145.002 0z"
         horiz-adv-x="277"
         unicode="I" />
      <glyph
         id="glyph75"
         d="M76.9963 0l0 710.002 145.005 0 0 -589.008 358.995 0 0 -120.994 -504 0z"
         horiz-adv-x="610"
         unicode="L" />
      <glyph
         id="glyph77"
         d="M70.9996 0l0 716.002 217.165 0 128.339 -488.332 126.833 488.332 217.661 0 0 -716.002 -133.992 0 -0.50495 563.669 -141.17 -563.669 -139.33 0 -140.502 563.669 -0.495933 -563.669 -134.001 0z"
         horiz-adv-x="832"
         unicode="M" />
      <glyph
         id="glyph79"
         d="M72.9965 0l0 716.002 140.339 0 294.665 -479.834 0 479.834 134.006 0 0 -716.002 -144.838 0 -290.165 470.668 0 -470.668 -134.006 0z"
         horiz-adv-x="722"
         unicode="N" />
      <glyph
         id="glyph81"
         d="M43.0019 353.664c0,73.0014 11.0007,134.335 32.8308,184 16.1674,36.5007 38.5025,69.3405 66.6715,98.3391 28.16,28.9986 58.998,50.495 92.4961,64.6607 44.6701,18.8365 96.166,28.3403 154.497,28.3403 105.67,0 190.006,-32.8398 253.503,-98.3391 63.3352,-65.6616 95.0028,-156.832 95.0028,-273.665 0,-115.832 -31.5053,-206.498 -94.3355,-271.835 -62.8302,-65.4993 -147.004,-98.1678 -252.169,-98.1678 -106.499,0 -191.331,32.5062 -254.161,97.6718 -62.8393,64.9943 -94.3355,154.668 -94.3355,268.994zm148.996 4.8331c0,-81.1617 18.8365,-142.666 56.338,-184.668 37.4926,-41.8297 85.1653,-62.8302 142.829,-62.8302 57.8348,0 105.165,20.8382 142.333,62.3343 37.0056,41.6674 55.4994,104.002 55.4994,187.165 0,82.1716 -17.9979,143.505 -54.1649,183.838 -35.9957,40.4952 -83.8308,60.6662 -143.667,60.6662 -59.6653,0 -107.834,-20.5046 -144.335,-61.3334 -36.5007,-41.0002 -54.8322,-102.667 -54.8322,-185.172z"
         horiz-adv-x="777"
         unicode="O" />
      <glyph
         id="glyph83"
         d="M73.0014 0l0 716.002 231.835 0c87.8343,0 144.993,-3.49858 171.665,-10.6671 41.0002,-10.8384 75.3278,-34.1653 103.001,-70.1701 27.6641,-35.9957 41.4961,-82.4963 41.4961,-139.502 0,-43.9938 -7.99805,-80.8281 -23.8319,-110.828 -15.9961,-29.9995 -36.1671,-53.4977 -60.6662,-70.666 -24.4991,-17.006 -49.5032,-28.3403 -74.8318,-33.8317 -34.4989,-6.83486 -84.3357,-10.3334 -149.673,-10.3334l-93.9929 0 0 -270.004 -145.002 0zm145.002 595.003l0 -204 78.8264 0c56.834,0 94.6692,3.83221 113.839,11.3343 19.1611,7.4931 34.1653,19.1611 44.9947,35.3285 10.8384,16.0051 16.3387,34.4989 16.3387,55.8331 0,26.1672 -7.67344,47.6637 -22.84,64.6697 -15.3288,16.997 -34.4989,27.6641 -57.9972,32.0012 -17.1683,3.16496 -51.6672,4.8331 -103.668,4.8331l-69.4938 0z"
         horiz-adv-x="667"
         unicode="P" />
      <glyph
         id="glyph85"
         d="M73.0014 0l0 716.002 304.503 0c76.5,0 132.162,-6.50124 166.832,-19.3324 34.8326,-12.8402 62.4966,-35.6711 83.3258,-68.5019 20.8382,-33.0021 31.334,-70.5037 31.334,-112.838 0,-53.8313 -15.6625,-98.1587 -47.1588,-133.163 -31.5053,-35.0039 -78.5017,-56.9963 -141.17,-66.1665 31.1626,-18.1692 56.834,-38.1688 76.9959,-59.9989 20.3333,-21.8301 47.6727,-60.6662 82.0003,-116.337l87.3384 -139.664 -172.837 0 -103.668 156.336c-37.168,55.4994 -62.6679,90.4943 -76.5,104.994 -13.6607,14.337 -28.16,24.3368 -43.4979,29.6658 -15.5002,5.33805 -39.837,8.00707 -73.1637,8.00707l-29.3322 0 0 -299.003 -145.002 0zm145.002 413.004l106.995 0c69.3315,0 112.505,2.99363 129.835,8.82761 17.1683,5.83398 30.829,16.0051 40.4952,30.3331 9.83751,14.337 14.6706,32.3349 14.6706,53.8313 0,24.1745 -6.50124,43.5069 -19.3324,58.5021 -12.8311,14.8329 -31.0003,24.1655 -54.3363,27.9977 -11.8303,1.66814 -46.9964,2.50672 -105.499,2.50672l-112.829 0 0 -181.999z"
         horiz-adv-x="722"
         unicode="R" />
      <glyph
         id="glyph87"
         d="M35.0039 231.998l140.998 14.0034c8.49399,-47.1678 25.5,-81.6667 51.3336,-103.83 25.8336,-22.1727 60.6662,-33.1734 104.498,-33.1734 46.3292,0 81.3331,9.83751 104.831,29.5035 23.4982,19.666 35.3375,42.6683 35.3375,68.9979 0,16.997 -5.00442,31.334 -14.8329,43.3356 -9.83751,11.8303 -27.1681,22.1637 -51.8386,30.829 -16.8347,6.0053 -55.1658,16.3387 -115.165,31.334 -77.1672,19.3324 -131.332,43.0019 -162.504,71.1709 -43.8315,39.4943 -65.6616,87.663 -65.6616,144.497 0,36.5007 10.3334,70.8373 30.829,102.667 20.6669,31.8389 50.3327,56.0044 89.1688,72.6678 38.8361,16.6634 85.4989,25.0041 140.502,25.0041 89.5024,0 157.003,-19.8373 202.169,-59.6743 45.3283,-39.828 68.9979,-92.8297 71.3332,-159.33l-145.002 -4.9954c-6.16761,36.9966 -19.3324,63.4975 -39.5033,79.6649 -20.1619,16.1674 -50.495,24.3278 -90.8279,24.3278 -41.6674,0 -74.3359,-8.66531 -97.8341,-25.9959 -15.1665,-11.172 -22.84,-26.0049 -22.84,-44.6701 0,-16.997 7.16849,-31.4963 21.5055,-43.4979 18.1692,-15.5002 62.3343,-31.4963 132.495,-48.1687 70.1701,-16.5011 122,-33.8317 155.507,-51.4959 33.6603,-17.8356 59.9989,-42.001 78.9977,-72.8391 18.9988,-30.829 28.5026,-68.8265 28.5026,-113.993 0,-41.0002 -11.3343,-79.5026 -34.1743,-115.336 -22.831,-35.8334 -54.9945,-62.4966 -96.6619,-79.8363 -41.6674,-17.5019 -93.6683,-26.1672 -155.831,-26.1672 -90.5033,0 -160.006,20.8382 -208.499,62.6679 -48.5023,41.6674 -77.3386,102.505 -86.8334,182.332z"
         horiz-adv-x="667"
         unicode="S" />
      <glyph
         id="glyph89"
         d="M234 0l0 595.008 -212 0 0 120.992 568 0 0 -120.992 -210.992 0 0 -595.008 -145.008 0z"
         horiz-adv-x="610"
         unicode="T" />
      <glyph
         id="glyph91"
         d="M72.9965 716.002l145.005 0 0 -388.005c0,-61.6637 1.83325,-101.495 5.33308,-119.661 6.16637,-29.3319 20.6657,-52.9975 43.6646,-70.6633 23.1656,-17.8444 54.6641,-26.6773 94.6622,-26.6773 40.51,0 71.1752,8.33294 91.8409,25.1774 20.6657,16.8325 32.9984,37.3316 37.1649,61.8304 4.16647,24.4988 6.33303,64.9969 6.33303,121.661l0 396.338 145.005 0 0 -376.506c0,-85.9959 -3.83315,-146.826 -11.6661,-182.325 -7.84486,-35.5102 -22.1775,-65.5088 -43.1765,-90.0076 -20.8323,-24.4988 -48.831,-43.8312 -83.8293,-58.3306 -35.165,-14.4993 -80.8295,-21.8323 -137.339,-21.8323 -68.1634,0 -119.828,7.83296 -154.993,23.6655 -35.165,15.8326 -62.997,36.3316 -83.496,61.6637 -20.5109,25.3321 -33.8436,51.6642 -40.3433,79.5081 -9.49955,40.998 -14.166,101.662 -14.166,181.825l0 382.339z"
         horiz-adv-x="722"
         unicode="U" />
      <glyph
         id="glyph93"
         d="M256.173 0l-256.173 716 156.661 0 181.843 -530 174.504 530 154 0 -254.677 -716 -156.157 0z"
         horiz-adv-x="667"
         unicode="V" />
      <glyph
         id="glyph95"
         d="M174 359.008l-124 22c14,50.6614 38.1732,88.1575 72.3307,112.488 34.1732,24.3307 85.0079,36.5039 152.331,36.5039 61.1654,0 106.835,-7.16535 136.835,-21.6693 29.8425,-14.5039 51.0079,-32.8346 63.1654,-55.1654 12.1732,-22.3307 18.3465,-63.1654 18.3465,-122.835l-2 -160c0,-45.4961 2.15748,-79.1654 6.48819,-100.835 4.33071,-21.6693 12.5039,-44.8346 24.5039,-69.4961l-136 0c-3.49606,9.00787 -8,22.3307 -13.1654,40 -2.17323,8.17323 -3.82677,13.4961 -4.83465,16 -23.3386,-22.9921 -48.3307,-40.1732 -74.9921,-51.6693 -26.6772,-11.4961 -55.0079,-17.3386 -85.1811,-17.3386 -53.1654,0 -95.1654,14.5039 -125.827,43.5118 -30.6614,28.8346 -46,65.4961 -46,109.827 0,29.1654 7.00787,55.3386 21.0079,78.3307 14,22.8346 33.4961,40.5039 58.8189,52.6772 25.1811,12.1575 61.5118,22.8346 109.008,32 64,12 108.504,23.3228 133.165,33.6693l0 13.8268c0,26.6614 -6.50394,45.6693 -19.4961,57.1654 -13.1654,11.3386 -37.8425,17.0079 -74,17.0079 -24.5039,0 -43.4961,-4.83465 -57.1654,-14.6772 -13.8425,-9.66929 -24.8346,-26.8346 -33.3386,-51.3228zm184 -111.008c-17.4961,-5.82677 -45.3386,-12.8346 -83.4961,-20.9921 -38,-8.17323 -63.0079,-16.1732 -74.6772,-23.8425 -17.8268,-12.8346 -26.8189,-28.8346 -26.8189,-48.3307 0,-19.3386 7.16535,-35.8268 21.4961,-49.8268 14.3307,-14 32.5039,-21.0079 54.6614,-21.0079 24.6614,0 48.3307,8.17323 70.8346,24.3307 16.5039,12.5039 27.4961,27.4961 32.6614,45.4961 3.51181,11.6693 5.33858,34 5.33858,66.8346l0 27.3386z"
         horiz-adv-x="556"
         unicode="a" />
      <glyph
         id="glyph97"
         d="M548 0l-126.992 0 0 76.1732c-21.1811,-29.6693 -46.3465,-51.8425 -75.1811,-66.8346 -28.8189,-14.8346 -58,-22.3465 -87.3228,-22.3465 -59.8425,0 -111.008,24.0157 -153.669,72.1732 -42.5039,48.1732 -63.8268,115.165 -63.8268,201.339 0,88 20.6614,154.992 62.1575,200.835 41.4961,45.8268 93.8425,68.6614 157.165,68.6614 58,0 108.331,-24.1732 150.677,-72.3307l0 258.331 136.992 0 0 -716zm-366 269.496c0,-55.4961 7.66929,-95.6693 22.8346,-120.488 22.1732,-36 52.9921,-54 92.6614,-54 31.5118,0 58.3307,13.4961 80.3307,40.4882 22.1732,27.0079 33.1811,67.1654 33.1811,120.835 0,59.8425 -10.6772,102.835 -32.1732,129.165 -21.4961,26.3307 -48.8346,39.5118 -82.3307,39.5118 -32.5039,0 -59.6693,-13.0079 -81.6693,-39.0079 -21.8268,-26 -32.8346,-64.8346 -32.8346,-116.504z"
         horiz-adv-x="610"
         unicode="d" />
      <glyph
         id="glyph99"
         d="M372 164l137.008 -22.9921c-17.5118,-50.1732 -45.3386,-88.3465 -83.1811,-114.677 -38,-26.1575 -85.4961,-39.3386 -142.331,-39.3386 -90.1575,0 -156.992,29.5118 -200.157,88.5039 -34.1732,47.3386 -51.3386,107.008 -51.3386,179.165 0,86 22.5039,153.512 67.3386,202.173 44.8346,48.8346 101.669,73.1654 170.331,73.1654 76.9921,0 137.827,-25.4961 182.504,-76.5039 44.4882,-50.9921 65.8268,-129.165 63.8268,-234.488l-342.992 0c0.992126,-40.6772 12,-72.3465 33.1654,-95.0079 20.9921,-22.6614 47.3228,-34 78.6614,-34 21.4961,0 39.4961,5.82677 54,17.4961 14.6614,11.6693 25.6693,30.5039 33.1654,56.5039zm8 139.008c-0.992126,39.8268 -11.1654,70.1575 -30.6614,90.8189 -19.5118,20.8346 -43.1654,31.1811 -71.1654,31.1811 -29.8425,0 -54.5039,-11.0079 -74,-32.8346 -19.5118,-21.8425 -29.0079,-51.6693 -28.6772,-89.1654l204.504 0z"
         horiz-adv-x="556"
         unicode="e" />
      <glyph
         id="glyph101"
         d="M72 589.008l0 126.992 137.008 0 0 -126.992 -137.008 0zm0 -589.008l0 519.008 137.008 0 0 -519.008 -137.008 0z"
         horiz-adv-x="277"
         unicode="i" />
      <glyph
         id="glyph103"
         d="M72 0l0 716 137.008 0 0 -716 -137.008 0z"
         horiz-adv-x="277"
         unicode="l" />
      <glyph
         id="glyph105"
         d="M40 265.827c0,45.6693 11.1654,89.8425 33.6693,132.504 22.5039,42.8346 54.3307,75.3386 95.4961,97.8425 41.1654,22.4882 87.0079,33.8268 137.843,33.8268 78.4882,0 142.661,-25.4961 192.819,-76.5039 50.1732,-51.1654 75.1811,-115.496 75.1811,-193.496 0,-78.6614 -25.3386,-143.827 -75.8425,-195.496 -50.6614,-51.6693 -114.331,-77.5118 -191.165,-77.5118 -47.4961,0 -92.8346,10.8346 -136,32.3465 -42.9921,21.4961 -75.8268,52.9921 -98.3307,94.6614 -22.5039,41.4961 -33.6693,92.1732 -33.6693,151.827zm141.008 -7.32283c0,-51.4961 12.1575,-91.0079 36.4882,-118.331 24.5039,-27.5118 54.5039,-41.1654 90.3307,-41.1654 35.6693,0 65.6693,13.6535 89.8425,41.1654 24.1575,27.3228 36.3307,67.1654 36.3307,119.323 0,50.8346 -12.1732,90 -36.3307,117.339 -24.1732,27.4961 -54.1732,41.1654 -89.8425,41.1654 -35.8268,0 -65.8268,-13.6693 -90.3307,-41.1654 -24.3307,-27.3386 -36.4882,-66.8346 -36.4882,-118.331z"
         horiz-adv-x="610"
         unicode="o" />
      <glyph
         id="glyph107"
         d="M203.008 0l-137.008 0 0 519.008 127.008 0 0 -73.6693c21.8268,34.8346 41.4961,57.6693 58.9921,68.4882 17.4961,10.8346 37.3386,16.1732 59.4961,16.1732 31.3386,0 61.5118,-8.66142 90.5039,-25.8268l-42.5039 -119.669c-23.1654,14.9921 -44.6614,22.5039 -64.4882,22.5039 -19.3386,0 -35.6693,-5.33858 -49.0079,-15.8425 -13.3386,-10.6614 -23.8268,-29.6693 -31.4961,-57.3386 -7.66929,-27.6535 -11.4961,-85.6535 -11.4961,-173.827l0 -160z"
         horiz-adv-x="389"
         unicode="r" />
      <glyph
         id="glyph109"
         d="M23.0079 146l138 21.0079c5.82677,-26.5039 17.6535,-46.6772 35.6535,-60.3465 17.8425,-13.8268 43.0079,-20.6614 75.1654,-20.6614 35.5118,0 62.1732,6.50394 80.1732,19.4961 12,9.16535 18,21.5118 18,36.8346 0,10.3307 -3.33858,19.0079 -9.82677,25.8425 -6.83465,6.48819 -22.1732,12.6614 -45.8425,18.1575 -110.835,24.5039 -180.992,46.8346 -210.661,67.0079 -41.1654,28.1575 -61.6693,67.1654 -61.6693,116.992 0,45.1654 17.8268,83.0079 53.3386,113.669 35.4961,30.6614 90.4882,46 164.992,46 71.0079,0 123.843,-11.6693 158.331,-34.8346 34.5039,-23.3386 58.3465,-57.6693 71.3386,-103.165l-128.992 -24c-5.51181,20.3307 -16.1732,36 -31.6693,46.8346 -15.5118,10.8346 -37.6693,16.1732 -66.5039,16.1732 -36.3307,0 -62.3307,-5.00787 -78.1732,-15.1811 -10.4882,-7.16535 -15.6535,-16.4882 -15.6535,-27.8268 0,-9.82677 4.48819,-18.1732 13.6535,-24.9921 12.5039,-9.1811 55.3386,-22 128.677,-38.6772 73.3228,-16.6614 124.488,-36.9921 153.496,-61.1654 28.8346,-24.3307 43.1654,-58.5039 43.1654,-102.157 0,-47.5118 -19.8268,-88.5039 -59.6693,-122.677 -39.6693,-34.1575 -98.5039,-51.3386 -176.504,-51.3386 -70.6614,0 -126.661,14.3465 -168,42.8346 -41.1654,28.5039 -68.1575,67.1811 -80.8189,116.173z"
         horiz-adv-x="556"
         unicode="s" />
      <glyph
         id="glyph111"
         d="M309.008 519.008l0 -109.008 -94 0 0 -210.173c0,-42.6614 0.818898,-67.4961 2.66142,-74.4882 1.82677,-7.00787 5.82677,-12.8346 12.3307,-17.5118 6.33071,-4.48819 14,-6.8189 23.1654,-6.8189 12.8346,0 31.1654,4.33071 55.3386,13.1654l11.4961 -106.677c-31.8268,-13.6693 -67.8268,-20.5039 -108.173,-20.5039 -24.6614,0 -46.8189,4.17323 -66.6614,12.5039 -19.8268,8.33071 -34.3307,19.1654 -43.4961,32.3307 -9.33858,13.3386 -15.6693,31.1811 -19.3386,53.8425 -2.83465,16 -4.33071,48.3307 -4.33071,97.1654l0 227.165 -62.9921 0 0 109.008 62.9921 0 0 102.992 137.008 81.0079 0 -184 94 0z"
         horiz-adv-x="333"
         unicode="t" />
      <glyph
         id="glyph113"
         d="M415.008 0l0 77.6693c-19.0079,-27.6693 -43.8425,-49.6693 -74.6772,-66.1732 -30.8346,-16.3307 -63.3228,-24.5039 -97.4961,-24.5039 -35.0079,0 -66.3307,7.66929 -94,23.0079 -27.8268,15.3386 -47.8268,37.0079 -60.1732,64.6614 -12.4882,27.8425 -18.6614,66.1732 -18.6614,115.165l0 329.181 137.008 0 0 -239.008c0,-73.1654 2.48819,-117.827 7.65354,-134.331 5.00787,-16.5039 14.1732,-29.6693 27.6693,-39.1654 13.3386,-9.66929 30.3307,-14.5039 51.0079,-14.5039 23.4961,0 44.4882,6.50394 63.1654,19.3386 18.6614,12.8346 31.3228,28.8346 38.1575,48 6.83465,19.1654 10.3465,65.8268 10.3465,140.331l0 219.339 136.992 0 0 -519.008 -126.992 0z"
         horiz-adv-x="610"
         unicode="u" />
      <glyph
         id="glyph115"
         d="M718.002 0l-156.171 0 -61.8304 163.004 -287.165 0 -59.4972 -163.004 -153.338 0 277.999 716.002 153.171 0 286.832 -716.002zm-264.999 283.998l-99.5072 264.999 -96.6621 -264.999 196.169 0zm-151.005 497l67.9968 146.005 153.005 0 -134.994 -146.005 -86.0078 0z"
         horiz-adv-x="722"
         unicode="Á" />
      <glyph
         id="glyph117"
         d="M42.998 353.662c0,73.0084 10.9995,134.339 32.8318,184.003 16.1659,36.4983 38.4982,69.33 66.6754,98.3406 28.1653,28.9986 58.9972,50.4976 92.4956,64.6636 44.6645,18.8324 96.1621,28.332 154.505,28.332 105.662,0 189.991,-32.8318 253.5,-98.3287 63.3303,-65.6754 94.9955,-156.838 94.9955,-273.677 0,-115.828 -31.4985,-206.49 -94.3288,-271.832 -62.8422,-65.4969 -147.005,-98.162 -252.167,-98.162 -106.507,0 -191.336,32.4985 -254.166,97.662 -62.8422,65.0088 -94.3407,154.671 -94.3407,268.999zm149.005 4.8331c0,-81.1628 18.8324,-142.66 56.3307,-184.658 37.4982,-41.8313 85.1626,-62.8422 142.838,-62.8422 57.8306,0 105.162,20.8442 142.327,62.3423 36.9982,41.6647 55.4974,103.995 55.4974,187.158 0,82.1747 -17.9991,143.505 -54.1641,183.836 -35.9983,40.4981 -83.8293,60.6638 -143.66,60.6638 -59.6757,0 -107.84,-20.499 -144.338,-61.3304 -36.4983,-40.998 -54.8307,-102.662 -54.8307,-185.17zm111.995 422.504l67.9968 146.005 153.005 0 -134.994 -146.005 -86.0078 0z"
         horiz-adv-x="777"
         unicode="Ó" />
    </font>
    <font
       vert-adv-y="90"
       vert-origin-y="90"
       vert-origin-x="45"
       horiz-origin-y="0"
       horiz-origin-x="0"
       font-weight="900"
       font-variant="normal"
       horiz-adv-x="777"
       id="FontID0">
      <font-face
         id="font-face120"
         font-family="Arial Black">
        <font-face-src>
          <font-face-name
             name="Arial Black Normal" />
        </font-face-src>
      </font-face>
      <missing-glyph
         id="missing-glyph124">
        <path
           id="path122"
           d="M0 0z" />
      </missing-glyph>
      <glyph
         id="glyph126"
         d=""
         horiz-adv-x="333"
         unicode=" " />
      <glyph
         id="glyph128"
         d="M513.505 118.006l-250.678 0 -36.0012 -118.006 -225.832 0 269.512 715.998 242.166 0 268.324 -715.998 -231.667 0 -35.8239 118.006zm-46.837 155l-78.174 257.329 -78.4933 -257.329 156.667 0z"
         horiz-adv-x="777"
         unicode="A" />
      <glyph
         id="glyph130"
         d="M75.9927 715.998l328.835 0c64.678,0 117.172,-8.83182 157.004,-26.3359 39.8319,-17.6636 72.8359,-42.829 98.9944,-75.6557 25.9989,-33.0041 44.833,-71.1689 56.5024,-114.831 11.8467,-43.6803 17.6636,-89.8434 17.6636,-138.667 0,-76.507 -8.65448,-135.847 -26.1585,-178.002 -17.3267,-42.1728 -41.4989,-77.5001 -72.499,-106 -31.0001,-28.4995 -64.1637,-47.511 -99.6684,-56.999 -48.5041,-12.9995 -92.5036,-19.508 -131.839,-19.508l-328.835 0 0 715.998zm221.008 -162.005l0 -390.994 54.3388 0c46.3227,0 79.3268,5.16076 98.9944,15.3404 19.4903,10.3215 34.8307,28.1625 46.0035,53.6649 11.1551,25.6619 16.6705,67.0013 16.6705,124.337 0,75.8331 -12.3433,127.654 -37.1717,155.656 -24.8284,28.0029 -66.0081,41.9955 -123.504,41.9955l-55.3319 0z"
         horiz-adv-x="777"
         unicode="D" />
      <glyph
         id="glyph132"
         d="M72.9955 715.998l591.998 0 0 -152.996 -369.997 0 0 -113.998 343.005 0 0 -146.009 -343.005 0 0 -140.99 381.01 0 0 -162.005 -603.011 0 0 715.998z"
         horiz-adv-x="722"
         unicode="E" />
      <glyph
         id="glyph134"
         d="M82.0047 715.998l222.002 0 0 -715.998 -222.002 0 0 715.998z"
         horiz-adv-x="389"
         unicode="I" />
      <glyph
         id="glyph136"
         d="M72.9955 715.998l221.008 0 0 -540 346.002 0 0 -175.998 -567.01 0 0 715.998z"
         horiz-adv-x="666"
         unicode="L" />
      <glyph
         id="glyph138"
         d="M70.9915 715.998l291.84 0 111.16 -435.668 111.515 435.668 290.492 0 0 -715.998 -180.999 0 0 545.835 -139.66 -545.835 -164.009 0 -139.323 545.835 0 -545.835 -181.017 0 0 715.998z"
         horiz-adv-x="943"
         unicode="M" />
      <glyph
         id="glyph140"
         d="M74.9996 715.998l206.501 0 268.502 -395.339 0 395.339 209.002 0 0 -715.998 -209.002 0 -266.994 393.158 0 -393.158 -208.009 0 0 715.998z"
         horiz-adv-x="832"
         unicode="N" />
      <glyph
         id="glyph142"
         d="M44.9926 357.494c0,116.835 32.5075,207.832 97.6821,272.847 65.1569,65.1569 155.834,97.6644 272.155,97.6644 119.176,0 211.006,-32.0109 275.507,-95.8377 64.5007,-64.0041 96.6712,-153.67 96.6712,-268.839 0,-83.654 -14.0103,-152.163 -42.1728,-205.668 -28.1625,-53.4875 -69.0053,-95.1638 -122.174,-124.993 -53.3279,-29.8296 -119.655,-44.6734 -199.159,-44.6734 -80.6746,0 -147.499,12.8398 -200.507,38.5018 -52.8313,25.8393 -95.82,66.5047 -128.664,122.174 -32.8267,55.4915 -49.3376,125.171 -49.3376,208.825zm221.008 -0.496568c0,-72.162 13.496,-124.16 40.3284,-155.656 27.0098,-31.5144 63.6672,-47.3336 110.008,-47.3336 47.4932,0 84.4876,15.5 110.504,46.3227 26.1585,31.0001 39.158,86.332 39.158,166.51 0,67.3205 -13.6734,116.498 -40.825,147.499 -27.3467,31.1597 -64.1815,46.6597 -110.841,46.6597 -44.6734,0 -80.6746,-15.837 -107.667,-47.3336 -27.1694,-31.4966 -40.6654,-83.8314 -40.6654,-156.667z"
         horiz-adv-x="832"
         unicode="O" />
      <glyph
         id="glyph144"
         d="M35.0081 236.828l209.995 13.1768c4.50458,-33.9972 13.833,-59.9961 27.8256,-77.6775 22.8421,-28.8187 55.3319,-43.3256 97.6644,-43.3256 31.5144,0 55.8462,7.32438 72.8359,22.1682 17.1671,14.8261 25.6797,31.9932 25.6797,51.5012 0,18.4972 -8.01603,35.1677 -24.1722,49.8342 -16.1739,14.6665 -53.8422,28.3221 -113.005,41.4989 -96.9904,21.6539 -165.996,50.6677 -207.335,86.8285 -41.6585,36.0012 -62.4967,82.0047 -62.4967,137.993 0,36.6751 10.6585,71.3462 31.9932,104.013 21.3347,32.8267 53.3456,58.4887 96.1747,77.1632 42.829,18.6568 101.495,28.0029 175.998,28.0029 91.4927,0 161.172,-17.0075 209.162,-51.1643 48.0075,-34.0149 76.507,-88.1764 85.6758,-162.502l-208.009 -12.3433c-5.49772,32.5075 -17.1671,56.1654 -34.8307,70.8319 -17.8233,14.8438 -42.3325,22.1682 -73.4921,22.1682 -25.6797,0 -45.17,-5.49772 -58.1694,-16.3336 -12.9995,-10.8358 -19.508,-24.1545 -19.508,-39.8319 0,-11.3324 5.33811,-21.4943 15.837,-30.6631 10.1619,-9.50574 34.8307,-18.1602 73.8291,-26.3359 96.6712,-20.8381 165.836,-41.9955 207.512,-63.3302 41.8359,-21.3347 72.3216,-47.6706 91.3331,-79.3268 18.9937,-31.5144 28.4995,-66.8416 28.4995,-106 0,-45.8439 -12.6802,-88.1764 -38.0052,-127.015 -25.5023,-38.6614 -60.8296,-68.154 -106.496,-88.1586 -45.5069,-20.0046 -102.843,-30.0069 -172.167,-30.0069 -121.677,0 -206.005,23.4983 -252.842,70.3354 -46.8193,46.837 -73.3325,106.337 -79.4864,178.499z"
         horiz-adv-x="722"
         unicode="S" />
      <glyph
         id="glyph146"
         d="M539.007 715.998l220.991 0 0 -426.499c0,-42.1728 -6.6682,-82.1643 -19.8273,-119.673 -13.1768,-37.6683 -33.8376,-70.495 -62.0001,-98.6575 -28.1625,-28.1625 -57.6729,-47.8302 -88.4956,-59.3399 -43.0064,-15.837 -94.6672,-23.8353 -154.841,-23.8353 -34.8307,0 -72.8359,2.50058 -113.998,7.34212 -41.162,4.82381 -75.6735,14.4892 -103.339,28.996 -27.666,14.5069 -52.9909,35.0081 -75.8331,61.6631 -23.0018,26.6728 -38.6614,54.1792 -47.1563,82.5013 -13.6734,45.5069 -20.5012,85.8354 -20.5012,121.003l0 426.499 220.991 0 0 -436.661c0,-38.9984 10.8358,-69.5018 32.3301,-91.3331 21.6717,-22.0086 51.6786,-33.0041 90.003,-33.0041 37.8279,0 67.6752,10.8358 89.3291,32.5075 21.5121,21.4943 32.3479,52.1574 32.3479,91.8297l0 436.661z"
         horiz-adv-x="832"
         unicode="U" />
      <glyph
         id="glyph148"
         d="M2.99714 715.998l231.17 0 161.332 -515.332 159.008 515.332 224.484 0 -265.824 -715.998 -239.665 0 -270.506 715.998z"
         horiz-adv-x="777"
         unicode="V" />
    </font>
</defs>
</svg>
