<?xml version="1.0" encoding="UTF-8" standalone="no"?>
<!-- Created with Inkscape (http://www.inkscape.org/) -->

<svg
   xmlns:dc="http://purl.org/dc/elements/1.1/"
   xmlns:cc="http://creativecommons.org/ns#"
   xmlns:rdf="http://www.w3.org/1999/02/22-rdf-syntax-ns#"
   xmlns:svg="http://www.w3.org/2000/svg"
   xmlns="http://www.w3.org/2000/svg"
   xmlns:sodipodi="http://sodipodi.sourceforge.net/DTD/sodipodi-0.dtd"
   xmlns:inkscape="http://www.inkscape.org/namespaces/inkscape"
   width="210mm"
   height="297mm"
   viewBox="0 0 210 297"
   version="1.1"
   id="svg8"
   inkscape:version="0.92.4 (5da689c313, 2019-01-14)"
   sodipodi:docname="dibujo2.svg">
  <defs
     id="defs2" />
  <sodipodi:namedview
     id="base"
     pagecolor="#ffffff"
     bordercolor="#666666"
     borderopacity="1.0"
     inkscape:pageopacity="0.0"
     inkscape:pageshadow="2"
     inkscape:zoom="0.41"
     inkscape:cx="-214.40857"
     inkscape:cy="296.99516"
     inkscape:document-units="mm"
     inkscape:current-layer="layer1"
     showgrid="false"
     showguides="true"
     inkscape:window-width="1920"
     inkscape:window-height="1017"
     inkscape:window-x="-8"
     inkscape:window-y="-8"
     inkscape:window-maximized="1" />
  <metadata
     id="metadata5">
    <rdf:RDF>
      <cc:Work
         rdf:about="">
        <dc:format>image/svg+xml</dc:format>
        <dc:type
           rdf:resource="http://purl.org/dc/dcmitype/StillImage" />
        <dc:title />
      </cc:Work>
    </rdf:RDF>
  </metadata>
  <g
     inkscape:label="Capa 1"
     inkscape:groupmode="layer"
     id="layer1"
     style="display:inline">
    <path
       style="fill:#2a3890;fill-opacity:1;stroke:#2a3890;stroke-width:0.26458332px;stroke-linecap:butt;stroke-linejoin:miter;stroke-opacity:1"
       d="m 129.8717,179.06682 c -8.06226,-17.4612 -20.08673,-23.34055 -33.718247,-24.52236 27.328177,-31.07569 34.420687,-71.004477 34.363567,-114.061229 19.27088,42.042121 39.72728,82.408159 46.94741,141.487549 -16.67223,-15.23256 -23.9574,-7.30023 -46.30208,10.97053 14.53583,-90.77779 8.3216,-110.73473 3.71062,-136.163617 2.14001,80.591147 -1.75246,98.073337 -5.00127,122.289127 z"
       id="path4530"
       inkscape:connector-curvature="0"
       sodipodi:nodetypes="ccccccc" />
    <path
       style="fill:#26a9e1;fill-opacity:1;stroke:#26a9e1;stroke-width:0.26458332px;stroke-linecap:butt;stroke-linejoin:miter;stroke-opacity:1"
       d="m 17.907774,216.49568 c 33.301748,-8.49793 57.780401,2.31731 87.925556,6.77591 -10.21755,-4.62493 -18.636415,-11.04854 -30.652945,-13.87449 -6.111491,-2.38705 -12.550297,-3.95581 -19.521088,-4.19461 -0.410228,-0.68371 -28.441084,3.6908 -37.751523,11.29319 z"
       id="path4536"
       inkscape:connector-curvature="0"
       sodipodi:nodetypes="ccccc" />
    <path
       style="fill:#26a9e1;fill-opacity:1;stroke:#26a9e1;stroke-width:0.26458332px;stroke-linecap:butt;stroke-linejoin:miter;stroke-opacity:1"
       d="m 29.684958,236.1781 c 27.829882,-4.81342 48.350028,1.85989 70.501782,5.96925 16.36848,2.46986 27.57908,7.88709 55.01397,4.03329 14.61507,-4.26248 31.63213,-13.35159 38.71951,-28.55564 -8.25696,8.07238 -19.63964,13.46558 -30.81428,19.03709 14.62246,-11.2272 27.78498,-22.81938 37.26753,-35.33155 -15.02992,11.26985 -31.2236,21.8683 -57.27261,26.78099 -30.77394,3.86075 -58.070946,-3.28882 -86.473574,-6.93724 -17.205952,-0.73999 -34.537079,-2.89862 -50.4966966,10.48653 10.7564566,-2.9453 21.7457726,-6.96823 32.9115846,-5.00127 4.310773,-0.6066 13.874492,0.64533 20.97307,0.96799 z"
       id="path4540"
       inkscape:connector-curvature="0"
       sodipodi:nodetypes="cccccccccccc" />
    <ellipse
       style="opacity:1;fill:#f9b041;fill-opacity:1;stroke:#fab50a;stroke-width:0.43132678;stroke-miterlimit:4;stroke-dasharray:none;stroke-opacity:1"
       id="path4542"
       cx="64.166138"
       cy="94.847595"
       rx="33.459534"
       ry="33.49181"
       transform="matrix(0.99466305,0.10317661,-0.07162092,0.99743192,0,0)" />
    <path
       style="fill:#ffffff;fill-opacity:1;stroke:#ffffff;stroke-width:0.26458332px;stroke-linecap:butt;stroke-linejoin:miter;stroke-opacity:1"
       d="m 29.204084,103.86517 c 4.830633,-0.35928 10.223878,-1.2192 13.206609,1.60402 1.658876,-4.11317 7.106528,-7.174938 11.890651,-9.817667 -4.573615,0.717669 -8.720364,2.729386 -12.541708,6.133737 -4.541277,-0.46743 -8.500457,0.4559 -12.555552,2.07991 z"
       id="path4546"
       inkscape:connector-curvature="0"
       sodipodi:nodetypes="ccccc" />
    <path
       style="fill:#ffffff;fill-opacity:1;stroke:#ffffff;stroke-width:0.26458332px;stroke-linecap:butt;stroke-linejoin:miter;stroke-opacity:1"
       d="m 65.419843,85.413998 c -3.750463,-0.983886 -6.993344,-1.440381 -10.849532,-1.895644 3.05333,-0.473014 6.259824,-1.107194 8.994221,-1.048654 10.915909,-5.530892 7.04503,-3.268347 10.72853,-4.880271 -3.236368,2.333716 -5.982625,4.865363 -8.873219,7.824569 z"
       id="path4548"
       inkscape:connector-curvature="0"
       sodipodi:nodetypes="ccccc" />
    <path
       style="display:inline;fill:#ffffff;fill-opacity:1;stroke:#ffffff;stroke-width:0.26458332px;stroke-linecap:butt;stroke-linejoin:miter;stroke-opacity:1"
       d="m 65.581172,117.72059 c -3.889792,-3.815 -10.798737,-2.88995 -16.939786,-2.90396 5.346414,-1.88501 10.608217,-3.11429 15.528139,-1.69398 4.694301,-7.02516 11.143537,-6.59184 17.020452,-8.59089 -11.677187,4.47244 -12.608175,8.81846 -15.608805,13.18883 z"
       id="path4550"
       inkscape:connector-curvature="0"
       sodipodi:nodetypes="ccccc" />
    <path
       style="opacity:1;fill:#2a3890;fill-opacity:1;stroke:#2a3890;stroke-width:0.26458332px;stroke-linecap:butt;stroke-linejoin:miter;stroke-opacity:1"
       d="m 61.34372,201.56835 c 22.133784,2.85049 42.83445,8.64684 59.52151,22.69337 29.09312,-4.29571 38.59736,-19.06919 41.68747,-37.27348 -11.36877,9.41167 -28.48889,12.62957 -47.7273,13.56624 -19.313926,0.16451 -50.404647,-1.04494 -53.48168,1.01387 z"
       id="path4600"
       inkscape:connector-curvature="0"
       sodipodi:nodetypes="ccccc" />
    <flowRoot
       xml:space="preserve"
       id="flowRoot5104"
       style="font-style:normal;font-weight:normal;font-size:15.91223717px;line-height:1;font-family:sans-serif;letter-spacing:0px;word-spacing:0px;display:inline;opacity:1;fill:#000000;fill-opacity:1;stroke:none"
       transform="matrix(0.51163411,0,0,0.83698802,-202.4113,-363.79336)"><flowRegion
         id="flowRegion5106"
         style="font-size:15.91223717px;line-height:1"><rect
           id="rect5108"
           width="265.05798"
           height="105.05585"
           x="474.7717"
           y="746.74292"
           style="font-size:15.91223717px;line-height:1" /></flowRegion><flowPara
         style="font-style:italic;font-variant:normal;font-weight:normal;font-stretch:normal;font-size:15.91223717px;line-height:1;font-family:Consolas;-inkscape-font-specification:'Consolas Italic'"
         id="flowPara5114">MANUEL ALEJANDRO FIERRO CANTU</flowPara><flowPara
         style="font-style:italic;font-variant:normal;font-weight:normal;font-stretch:normal;font-size:15.91223717px;line-height:1;font-family:Consolas;-inkscape-font-specification:'Consolas Italic'"
         id="flowPara5118">PRACTICA 2 ANIMACIÓN</flowPara></flowRoot>  </g>
  <g
     inkscape:groupmode="layer"
     id="layer2"
     inkscape:label="capa2"
     style="display:none" />
</svg>
