<?xml version="1.0" encoding="UTF-8" standalone="no"?>
<!-- Created with Inkscape (http://www.inkscape.org/) -->

<svg
   xmlns:dc="http://purl.org/dc/elements/1.1/"
   xmlns:cc="http://creativecommons.org/ns#"
   xmlns:rdf="http://www.w3.org/1999/02/22-rdf-syntax-ns#"
   xmlns:svg="http://www.w3.org/2000/svg"
   xmlns="http://www.w3.org/2000/svg"
   xmlns:sodipodi="http://sodipodi.sourceforge.net/DTD/sodipodi-0.dtd"
   xmlns:inkscape="http://www.inkscape.org/namespaces/inkscape"
   width="210mm"
   height="327mm"
   viewBox="0 0 210 327"
   version="1.1"
   id="svg8"
   sodipodi:docname="Práctica_3-2_JesusRobertoEstradaDiaz.svg"
   inkscape:version="0.92.4 (5da689c313, 2019-01-14)"
   inkscape:export-filename="D:\- HD\1-Videotutoriales\Inkscape\3-Color personalizado y trazo avanzado\Elementos\Prácticas\Práctica 3-2.png"
   inkscape:export-xdpi="96"
   inkscape:export-ydpi="96">
  <defs
     id="defs2">
    <style
       id="style853"
       type="text/css"><![CDATA[
    .fil0 {fill:#336666;fill-rule:nonzero}
   ]]></style>
    <clipPath
       id="clipEmfPath2"
       clipPathUnits="userSpaceOnUse">
      <path
         inkscape:connector-curvature="0"
         id="path894"
         d="m 174.96698,0 h 475.7529 v 57.011711 h -475.7529 z" />
    </clipPath>
    <clipPath
       id="clipEmfPath6"
       clipPathUnits="userSpaceOnUse">
      <path
         inkscape:connector-curvature="0"
         id="path906"
         d="m 174.96698,57.011711 h 475.7529 v 94.364209 h -475.7529 z" />
    </clipPath>
    <clipPath
       id="clipEmfPath10"
       clipPathUnits="userSpaceOnUse">
      <path
         inkscape:connector-curvature="0"
         id="path918"
         d="m 174.96698,151.37592 h 475.7529 v 58.97764 h -475.7529 z" />
    </clipPath>
    <clipPath
       id="clipEmfPath12"
       clipPathUnits="userSpaceOnUse">
      <path
         inkscape:connector-curvature="0"
         id="path924"
         d="M 855.17567,151.37592 H 1321.099 v 58.97764 H 855.17567 Z" />
    </clipPath>
  </defs>
  <sodipodi:namedview
     id="base"
     pagecolor="#ffffff"
     bordercolor="#666666"
     borderopacity="1.0"
     inkscape:pageopacity="0.0"
     inkscape:pageshadow="2"
     inkscape:zoom="1.8244669"
     inkscape:cx="371.93897"
     inkscape:cy="660.8266"
     inkscape:document-units="mm"
     inkscape:current-layer="layer1"
     showgrid="false"
     inkscape:snap-global="false"
     inkscape:window-width="1920"
     inkscape:window-height="1017"
     inkscape:window-x="-8"
     inkscape:window-y="-8"
     inkscape:window-maximized="1" />
  <metadata
     id="metadata5">
    <rdf:RDF>
      <cc:Work
         rdf:about="">
        <dc:format>image/svg+xml</dc:format>
        <dc:type
           rdf:resource="http://purl.org/dc/dcmitype/StillImage" />
        <dc:title />
      </cc:Work>
    </rdf:RDF>
  </metadata>
  <g
     inkscape:label="Capa 1"
     inkscape:groupmode="layer"
     id="layer1"
     transform="translate(0,30)">
    <text
       xml:space="preserve"
       style="font-style:normal;font-weight:normal;font-size:10.58333302px;line-height:1.25;font-family:sans-serif;letter-spacing:0px;word-spacing:0px;fill:#000000;fill-opacity:1;stroke:none;stroke-width:0.26458332"
       x="28.36644"
       y="-16.569048"
       id="text817"><tspan
         sodipodi:role="line"
         id="tspan815"
         x="28.36644"
         y="-16.569048"
         style="font-style:normal;font-variant:normal;font-weight:normal;font-stretch:normal;font-family:Arial;-inkscape-font-specification:Arial;stroke-width:0.26458332">Prácticas con el Modelo RUEDA</tspan></text>
    <rect
       style="fill:#01ff6e;fill-opacity:1;stroke:none;stroke-width:4.70591784;stroke-linecap:butt;stroke-linejoin:miter;stroke-miterlimit:4;stroke-dasharray:none;stroke-opacity:1;paint-order:stroke fill markers"
       id="rect823"
       width="27.133095"
       height="23.515347"
       x="40.098518"
       y="-8.4803638" />
    <rect
       y="-8.4803638"
       x="71.753792"
       height="23.515347"
       width="27.133095"
       id="rect825"
       style="fill:#011bff;fill-opacity:1;stroke:none;stroke-width:4.70591784;stroke-linecap:butt;stroke-linejoin:miter;stroke-miterlimit:4;stroke-dasharray:none;stroke-opacity:1;paint-order:stroke fill markers" />
    <rect
       style="fill:#ff01b0;fill-opacity:1;stroke:none;stroke-width:4.70591784;stroke-linecap:butt;stroke-linejoin:miter;stroke-miterlimit:4;stroke-dasharray:none;stroke-opacity:1;paint-order:stroke fill markers"
       id="rect827"
       width="27.133095"
       height="23.515347"
       x="104.414"
       y="-8.4803638" />
    <rect
       y="-8.4803638"
       x="136.57175"
       height="23.515347"
       width="27.133095"
       id="rect829"
       style="fill:#fff601;fill-opacity:1;stroke:none;stroke-width:4.70591784;stroke-linecap:butt;stroke-linejoin:miter;stroke-miterlimit:4;stroke-dasharray:none;stroke-opacity:1;paint-order:stroke fill markers" />
    <rect
       y="24.566021"
       x="40.098518"
       height="23.515347"
       width="27.133095"
       id="rect831"
       style="fill:#01ff74;fill-opacity:1;stroke:none;stroke-width:4.70591784;stroke-linecap:butt;stroke-linejoin:miter;stroke-miterlimit:4;stroke-dasharray:none;stroke-opacity:1;paint-order:stroke fill markers" />
    <rect
       style="fill:#2f01ff;fill-opacity:1;stroke:none;stroke-width:4.70591784;stroke-linecap:butt;stroke-linejoin:miter;stroke-miterlimit:4;stroke-dasharray:none;stroke-opacity:1;paint-order:stroke fill markers"
       id="rect833"
       width="27.133095"
       height="23.515347"
       x="71.753792"
       y="24.566021" />
    <rect
       y="24.566021"
       x="104.414"
       height="23.515347"
       width="27.133095"
       id="rect835"
       style="fill:#ff01aa;fill-opacity:1;stroke:none;stroke-width:4.70591784;stroke-linecap:butt;stroke-linejoin:miter;stroke-miterlimit:4;stroke-dasharray:none;stroke-opacity:1;paint-order:stroke fill markers" />
    <rect
       style="fill:#fff701;fill-opacity:1;stroke:none;stroke-width:4.70591784;stroke-linecap:butt;stroke-linejoin:miter;stroke-miterlimit:4;stroke-dasharray:none;stroke-opacity:1;paint-order:stroke fill markers"
       id="rect837"
       width="27.133095"
       height="23.515347"
       x="136.57175"
       y="24.566021" />
    <g
       style="clip-rule:evenodd;fill:#000000;fill-rule:evenodd;image-rendering:optimizeQuality;shape-rendering:geometricPrecision;text-rendering:geometricPrecision"
       id="g871"
       transform="matrix(0,0.01470722,-0.03080804,0,60.498586,17.144901)">
      <g
         id="Capa_x0020_1"
         style="fill:#000000">
        <metadata
           id="CorelCorpID_0Corel-Layer" />
        <polygon
           id="polygon858"
           points="211,308 211,411 0,205 211,0 211,103 422,103 422,308 "
           class="fil0"
           style="fill:#000000;fill-rule:nonzero" />
      </g>
    </g>
    <g
       style="clip-rule:evenodd;fill:#000000;fill-rule:evenodd;image-rendering:optimizeQuality;shape-rendering:geometricPrecision;text-rendering:geometricPrecision"
       id="g887"
       transform="matrix(0,0.01470722,-0.03080804,0,91.409354,17.144901)">
      <g
         id="g885"
         style="fill:#000000">
        <metadata
           id="metadata881" />
        <polygon
           id="polygon883"
           points="211,411 0,205 211,0 211,103 422,103 422,308 211,308 "
           class="fil0"
           style="fill:#000000;fill-rule:nonzero" />
      </g>
    </g>
    <g
       style="clip-rule:evenodd;fill:#000000;fill-rule:evenodd;image-rendering:optimizeQuality;shape-rendering:geometricPrecision;text-rendering:geometricPrecision"
       id="g895"
       transform="matrix(0,0.01470722,-0.03080804,0,123.74131,17.144901)">
      <g
         id="g893"
         style="fill:#000000">
        <metadata
           id="metadata889" />
        <polygon
           id="polygon891"
           points="211,411 0,205 211,0 211,103 422,103 422,308 211,308 "
           class="fil0"
           style="fill:#000000;fill-rule:nonzero" />
      </g>
    </g>
    <g
       style="clip-rule:evenodd;fill:#000000;fill-rule:evenodd;image-rendering:optimizeQuality;shape-rendering:geometricPrecision;text-rendering:geometricPrecision"
       id="g903"
       transform="matrix(0,0.01470722,-0.03080804,0,156.78385,17.144901)">
      <g
         id="g901"
         style="fill:#000000">
        <metadata
           id="metadata897" />
        <polygon
           id="polygon899"
           points="211,411 0,205 211,0 211,103 422,103 422,308 211,308 "
           class="fil0"
           style="fill:#000000;fill-rule:nonzero" />
      </g>
    </g>
    <flowRoot
       xml:space="preserve"
       id="flowRoot905"
       style="font-style:normal;font-weight:normal;font-size:16px;line-height:1.25;font-family:sans-serif;letter-spacing:0px;word-spacing:0px;fill:#000000;fill-opacity:1;stroke:none"
       transform="matrix(0.26458333,0,0,0.26458333,0,22.505507)"><flowRegion
         id="flowRegion907"
         style="font-size:16px"><rect
           id="rect909"
           width="725.28961"
           height="82.832497"
           x="34.345188"
           y="122.46867"
           style="font-size:16px" /></flowRegion><flowPara
         style="font-style:normal;font-variant:normal;font-weight:normal;font-stretch:normal;font-size:14.66666698px;font-family:Arial;-inkscape-font-specification:Arial"
         id="flowPara994">Para estos ejercicios utiliza el modelo RUEDA.</flowPara><flowPara
         style="font-style:normal;font-variant:normal;font-weight:normal;font-stretch:normal;font-size:14.66666698px;font-family:Arial;-inkscape-font-specification:Arial"
         id="flowPara891">Selecciona los círculos de arriba (los que todos tienen el mismo color) e intenta darle el color del círculo que tiene debajo, pero usando solamente Rueda cromática.</flowPara></flowRoot>    <path
       style="fill:none;stroke:#000000;stroke-width:0.26458332px;stroke-linecap:butt;stroke-linejoin:miter;stroke-opacity:1"
       d="M 9.9785717,77.066194 H 198.21072"
       id="path915"
       inkscape:connector-curvature="0"
       sodipodi:nodetypes="cc" />
    <flowRoot
       transform="matrix(0.26458333,0,0,0.26458333,0,88.651328)"
       style="font-style:normal;font-weight:normal;font-size:16px;line-height:1.25;font-family:sans-serif;letter-spacing:0px;word-spacing:0px;fill:#000000;fill-opacity:1;stroke:none"
       id="flowRoot925"
       xml:space="preserve"><flowRegion
         style="font-size:16px"
         id="flowRegion919"><rect
           style="font-size:16px"
           y="122.46867"
           x="34.345188"
           height="102.61205"
           width="354.69791"
           id="rect917" /></flowRegion><flowPara
         style="font-style:normal;font-variant:normal;font-weight:normal;font-stretch:normal;font-size:14.66666698px;font-family:Arial;-inkscape-font-specification:Arial;fill:#000000"
         id="flowPara1009">- Toma los colores de arriba, uno por uno</flowPara><flowPara
         style="font-style:normal;font-variant:normal;font-weight:normal;font-stretch:normal;font-size:14.66666698px;font-family:Arial;-inkscape-font-specification:Arial;fill:#000000"
         id="flowPara902">- Mueve el pequeño círculo y muévelo por el centro del triángulo para ir quitándole “Saturación”</flowPara><flowPara
         style="font-style:normal;font-variant:normal;font-weight:normal;font-stretch:normal;font-size:14.66666698px;font-family:Arial;-inkscape-font-specification:Arial;fill:#000000"
         id="flowPara904">- Ve dándolo más y menos saturación para ir viendo los diferentes resultados.</flowPara></flowRoot>    <rect
       y="85.559738"
       x="9.4824467"
       height="23.515347"
       width="20.080612"
       id="rect935"
       style="fill:#4aa077;fill-opacity:1;stroke:none;stroke-width:4.04839754;stroke-linecap:butt;stroke-linejoin:miter;stroke-miterlimit:4;stroke-dasharray:none;stroke-opacity:1;paint-order:stroke fill markers" />
    <rect
       style="fill:#2c3990;fill-opacity:1;stroke:none;stroke-width:4.04839754;stroke-linecap:butt;stroke-linejoin:miter;stroke-miterlimit:4;stroke-dasharray:none;stroke-opacity:1;paint-order:stroke fill markers"
       id="rect937"
       width="20.080612"
       height="23.515347"
       x="32.909824"
       y="85.559738" />
    <rect
       y="85.559738"
       x="57.080933"
       height="23.515347"
       width="20.080612"
       id="rect939"
       style="fill:#a0307a;fill-opacity:1;stroke:none;stroke-width:4.04839754;stroke-linecap:butt;stroke-linejoin:miter;stroke-miterlimit:4;stroke-dasharray:none;stroke-opacity:1;paint-order:stroke fill markers" />
    <rect
       style="fill:#b2ab24;fill-opacity:1;stroke:none;stroke-width:4.04839754;stroke-linecap:butt;stroke-linejoin:miter;stroke-miterlimit:4;stroke-dasharray:none;stroke-opacity:1;paint-order:stroke fill markers"
       id="rect941"
       width="20.080612"
       height="23.515347"
       x="80.88018"
       y="85.559738" />
    <rect
       style="fill:#00d4aa;fill-opacity:1;stroke:none;stroke-width:3.59655786;stroke-linecap:butt;stroke-linejoin:miter;stroke-miterlimit:4;stroke-dasharray:none;stroke-opacity:1;paint-order:stroke fill markers"
       id="rect943"
       width="91.412254"
       height="4.0769157"
       x="9.4824467"
       y="-115.79781"
       transform="scale(1,-1)" />
    <path
       sodipodi:nodetypes="cc"
       inkscape:connector-curvature="0"
       id="path945"
       d="M 9.9785717,155.22205 H 198.21072"
       style="fill:none;stroke:#000000;stroke-width:0.26458332px;stroke-linecap:butt;stroke-linejoin:miter;stroke-opacity:1" />
    <flowRoot
       xml:space="preserve"
       id="flowRoot973"
       style="font-style:normal;font-weight:normal;font-size:16px;line-height:1.25;font-family:sans-serif;letter-spacing:0px;word-spacing:0px;fill:#000000;fill-opacity:1;stroke:none"
       transform="matrix(0.26458333,0,0,0.26458333,100.16369,88.651328)"><flowRegion
         id="flowRegion961"
         style="font-size:16px"><rect
           id="rect959"
           width="348.8103"
           height="85.080498"
           x="34.345188"
           y="122.46867"
           style="font-size:16px" /></flowRegion><flowPara
         style="font-style:normal;font-variant:normal;font-weight:normal;font-stretch:normal;font-size:14.66666698px;font-family:Arial;-inkscape-font-specification:Arial;fill:#000000"
         id="flowPara988">- Toma los colores de arriba, uno por uno</flowPara><flowPara
         style="font-style:normal;font-variant:normal;font-weight:normal;font-stretch:normal;font-size:14.66666698px;font-family:Arial;-inkscape-font-specification:Arial;fill:#000000"
         id="flowPara915">- Desplaza el pequeño círculo por el lado izquierdo del triángulo, para ir oscureciendo el color, y por el lado derecho del triángulo para ir aclarando el color</flowPara></flowRoot>    <g
       transform="matrix(0.08234271,-0.1404195,0.1404195,0.08234271,-16.731817,210.60484)"
       id="g1600"
       style="fill:#fe8872;fill-opacity:0.94117647">
      <path
         inkscape:connector-curvature="0"
         id="path1590"
         d="m 301.28009,463.00454 c -6.6,-3.7 -13.1,-7.7 -19.4,-11.9 -10.2,-6.9 -20.1,-14.3 -29.3,-22.4 -9.3,-8 -18.1,-16.7 -26.1,-26 -8.1,-9.3 -15.3,-19.2 -21.6,-29.7 -4.7,-7.8 -8.7,-15.9 -12.1,-24.4 5.8,10.8 13.7,20.5 22.9,28.7 6.1,5.5 12.9,10.3 20.2,14.4 7.2,4 14.9,7.3 22.7,9.9 7.9,2.6 16,4.3 24.1,5.5 1,0.1 2,0.3 3.1,0.4 l 3.1,0.3 c 2.1,0.2 4.1,0.5 6.2,0.5 2.1,0.1 4.1,0.2 6.2,0.3 l 6.2,0.1 c 3.1,0 6.2,-0.1 9.2,-0.2 -7.1,1.8 -14.2,3.9 -20.9,6 -20.9,6.4 -12.8,27.2 5.5,48.5"
         style="fill:#fe8872;fill-opacity:0.94117647" />
      <path
         inkscape:connector-curvature="0"
         id="path1588"
         d="m 337.18009,385.70454 c 21.5,-10.3 54.5,6.4 54.5,6.4 -24.9,-26.6 -57.1,-16.7 -92.2,-10.7 2.6,-18.9 53.2,-19.7 53.2,-19.7 -44.6,-18 -68.9,13.6 -112.4,2 -13.8,-3.7 -25.1,-12.7 -32.6,-26.1 -15.4,-27.5 -22.3,-57.5 -21.5,-71.2 -1.6,7.1 -3,15.1 -4,24 -0.1,4.4 -0.1,8.8 0.2,13.2 0.7,12.3 3.2,24.4 7.1,36 0.5,1.6 1.1,3.2 1.7,4.8 2.6,4.8 5.6,9.4 9,13.7 4.9,6.5 10.6,12.4 16.8,17.6 3.1,2.7 6.3,5.1 9.7,7.4 1.7,1.1 3.4,2.2 5.1,3.3 1.8,1 3.5,2.1 5.3,3 7.1,3.9 14.6,7.1 22.3,9.6 7.7,2.5 15.7,4.3 23.7,5.5 1,0.2 2,0.4 3,0.5 l 3,0.4 c 2,0.2 4,0.5 6.1,0.6 l 6.1,0.4 6.1,0.2 c 6,0.1 12.1,0 18.1,-0.3 33.3,-7.3 64.9,-6.1 64.6,30.4 13.6,-49.7 -43.4,-50.1 -52.9,-51"
         style="fill:#fe8872;fill-opacity:0.94117647" />
      <path
         inkscape:connector-curvature="0"
         id="path1586"
         d="m 306.08009,468.40454 c -8.9,-4.3 -17.6,-9.2 -26,-14.5 -10.6,-6.6 -20.6,-14.1 -30.1,-22.1 -9.5,-8.1 -18.4,-16.8 -26.7,-26.3 -8.1,-9.5 -15.6,-19.6 -21.9,-30.4 -5.6,-9.8 -10.4,-20 -14,-30.7 0.2,5.4 0.8,10.7 1.9,15.9 1.5,7.5 3.6,14.9 6,22.2 2.5,7.3 5.3,14.4 8.5,21.4 3.2,7 6.6,13.9 10.3,20.6 3.7,6.8 7.6,13.3 11.9,19.8 4.2,6.4 8.7,12.7 13.4,18.7 3.4,4.2 6.9,8.3 10.6,12.3 1,-2.5 3.1,-3.9 5.6,-3.7 4.5,7 10.9,14.5 18,21.6 v 0 c 0,0 0,0 0,0 19.9,20 45.7,37.5 54.5,36.3 -53.2,-38.6 -60.1,-66.9 -48.9,-60.1 11.2,6.9 71.2,55.8 88.4,45.5 -18.3,-8.2 -43.5,-27.2 -61.5,-46.5"
         style="fill:#fe8872;fill-opacity:0.94117647" />
      <path
         inkscape:connector-curvature="0"
         id="path1584"
         d="m 249.58009,476.90454 c -4.1,-4 -8,-8.3 -11.7,-12.7 -9.9,-11.9 -18.5,-24.9 -26,-38.5 -7.4,-13.6 -13.9,-27.8 -18.5,-42.6 -2.3,-7.4 -4.2,-15 -5.4,-22.6 -0.1,-1 -0.3,-1.9 -0.4,-2.9 l -0.3,-2.9 c -0.2,-1.9 -0.3,-3.9 -0.4,-5.8 l -0.1,-1.5 c 0,-0.5 0,-1 0,-1.5 v -2.9 c 0,0 0,-0.1 0,-0.1 -0.2,-0.7 -0.5,-1.5 -0.7,-2.2 -3,-10 -5,-20.3 -5.7,-30.7 -3.8,74.5 16.1,182.5 99.5,205.7 -25.2,-16 -31.7,-31.1 -30.3,-38.8"
         style="fill:#fe8872;fill-opacity:0.94117647" />
      <path
         inkscape:connector-curvature="0"
         id="path1582"
         d="m 186.98009,262.60454 c -20.7,13.2 -45.8,41.6 -51.4,68.2 0.8,-40.5 29.1,-64.1 38.8,-87.6 -7.4,9.7 -39,22.4 -55.9,19.4 0.9,-0.2 1.9,-0.3 2.8,-0.5 4.9,-1 9.7,-2.4 14.4,-4.1 9.4,-3.4 18.4,-8 26.8,-13.5 8.3,-5.7 15.9,-12.4 22,-20.5 3,-4 5.6,-8.4 7.5,-13 1.9,-4.6 3.4,-9.5 4,-14.4 -2,9.8 -6.6,18.8 -12.6,26.6 -6.1,7.7 -13.7,14.3 -21.9,19.9 -4.1,2.8 -8.4,5.3 -12.8,7.6 -4.4,2.3 -8.9,4.3 -13.5,6.1 -4.6,1.8 -9.3,3.3 -14.2,4.5 -1.4,0.4 -2.9,0.7 -4.3,1 -0.9,-0.2 -1.8,-0.6 -2.7,-0.9 14.6,1.7 65.2,-37.8 61.8,-43.8 -3.4,-6 -30,7.7 -39.5,30 -0.4,-1.2 -0.6,-2.3 -0.8,-3.6 0.8,-2.1 1.7,-4.2 2.6,-6.3 2,-4.1 4.3,-8.1 6.9,-11.8 2.6,-3.7 5.6,-7.2 8.7,-10.5 3.2,-3.3 6.6,-6.3 10.2,-9 7.2,-5.5 15.2,-10.1 23.6,-13.7 4.2,-1.8 8.5,-3.3 12.9,-4.6 4.4,-1.2 8.9,-2.2 13.5,-2 -2.3,-0.3 -4.6,-0.2 -6.9,0 -2.3,0.3 -4.6,0.7 -6.8,1.2 -4.5,1 -8.9,2.4 -13.2,4.1 -8.6,3.4 -16.7,7.9 -24.1,13.5 -7.4,5.6 -13.9,12.4 -19,20.1 -2.5,3.9 -4.7,8 -6.5,12.2 -0.7,1.8 -1.4,3.7 -2,5.6 -2.2,-21 22.1,-50.7 57.4,-64.8 1.7,-5.1 3.8,-10 6.1,-14.7 -25.3,10.5 -53.1,5.2 -53.1,5.2 0,0 0.2,-0.1 0.6,-0.2 3,0.5 6,0.8 9.1,0.6 1.6,-0.1 3.3,-0.2 4.9,-0.5 l 2.4,-0.4 c 0.8,-0.1 1.6,-0.3 2.4,-0.5 0.8,-0.2 1.6,-0.3 2.4,-0.5 l 2.4,-0.6 c 1.6,-0.4 3.1,-0.9 4.7,-1.4 6.2,-2 12.2,-4.4 18.2,-7 6,-2.5 11.9,-5.2 17.7,-8 -6.2,1.8 -12.3,4 -18.4,6.1 -3.1,1.1 -6.1,2.2 -9.1,3.2 -1.5,0.5 -3,1.1 -4.6,1.6 -1.5,0.5 -3,1.1 -4.6,1.5 -1.5,0.5 -3,1 -4.6,1.4 l -2.3,0.7 c -0.8,0.2 -1.5,0.4 -2.3,0.6 -3.1,0.8 -6.2,1.3 -9.4,1.7 -2,0.2 -4.1,0.3 -6.2,0.2 5.7,-2.5 16.9,-8.4 20.7,-16.6 0,0 -23.2,15.4 -61.8,13.7 0,0 37.8,-16.3 34.3,-22.3 -3.4,-6 -23.2,1.7 -31.7,16.3 8.6,-36.9 33.3,-43.8 54.9,-42 22.4,1.9 36.7,15 50.7,22.4 6.5,-6.8 14.2,-12.6 23.1,-17.3 10.3,5.1 16.6,16.2 14.6,27.5 -1.4,7.8 -5.8,18 -7.2,21.3 -3.8,4 -7.3,8.3 -10.5,12.7 -4.7,6.5 -8.8,13.3 -12.6,20.4 -3.7,7.1 -7,14.3 -10,21.7 -2.9,7.4 -5.4,15 -7.5,22.7 -2.1,7.7 -3.8,15.5 -5,23.4 -1.2,7.9 -1.8,15.8 -1.8,23.8 0.1,8 0.8,15.9 2.7,23.6 -7,-16.9 -12.2,-36.1 -15,-55.7"
         style="fill:#fe8872;fill-opacity:0.94117647" />
      <path
         inkscape:connector-curvature="0"
         id="path1580"
         d="m 215.78009,148.50454 c -7.8,-5.5 -16.2,-10.1 -25.1,-13.7 -4.5,-1.8 -9,-3.3 -13.7,-4.5 -4.7,-1.2 -9.4,-2 -14.3,-2.4 -4.8,-0.4 -9.7,-0.4 -14.5,0.2 -4.8,0.6 -9.6,1.7 -14.1,3.7 l -1.7,0.7 -1.6,0.8 c -1.1,0.5 -2.1,1.2 -3.1,1.8 -2,1.4 -4,2.9 -5.6,4.6 -3.5,3.4 -6,7.7 -7.5,12.2 2,-4.3 4.8,-8.2 8.4,-11.3 3.5,-3.1 7.6,-5.4 12,-7.1 2.2,-0.8 4.4,-1.5 6.7,-2 1.1,-0.2 2.3,-0.5 3.4,-0.7 1.2,-0.1 2.3,-0.4 3.5,-0.4 4.6,-0.5 9.3,-0.5 14,-0.1 9.4,0.8 18.6,3.1 27.5,6.2 8.8,3.3 17.3,7.4 25.7,12"
         style="fill:#fe8872;fill-opacity:0.94117647" />
      <path
         inkscape:connector-curvature="0"
         id="path1576"
         d="m 309.78009,181.50454 c -2.1,8.2 -6.8,16.6 -13.1,25.2 10,9.3 25.5,20.3 34.5,35.8 11.4,19.4 9.5,53 -7,73.2 -0.9,1.1 -1.8,2.1 -2.8,3.1 2.3,-5.9 4,-12 5,-18.2 2,-12.7 1,-25.8 -2.8,-38.1 -3.9,-12.3 -10.7,-23.6 -19.6,-32.8 -4.5,-4.6 -9.5,-8.7 -14.9,-12.1 -4.7,-3 -9.6,-5.6 -14.8,-7.6 0.3,-0.9 0.7,-1.7 1,-2.5 -0.4,0.7 -0.9,1.5 -1.3,2.3 -0.7,-0.3 -1.3,-0.5 -2,-0.8 0.7,0.3 1.3,0.6 2,0.9 -3.4,6.5 -6.8,17.5 -6.4,29.2 -30.4,30.4 -64.9,61.3 -60.7,90 -1.7,-3.4 -3.2,-7 -4.7,-10.6 -1,-7.9 -1.1,-15.7 -0.6,-23.6 0.5,-7.8 1.6,-15.6 3,-23.3 1.5,-7.7 3.4,-15.3 5.6,-22.8 2.2,-7.5 4.7,-14.9 7.6,-22.2 2.8,-7.3 6.1,-14.5 9.6,-21.4 3.5,-7 7.4,-13.8 11.7,-20.3 3.3,-4.9 6.7,-9.6 10.6,-14.1 9.7,-1.3 38.9,-3.4 60.1,10.7"
         style="fill:#fe8872;fill-opacity:0.94117647" />
      <path
         inkscape:connector-curvature="0"
         id="path1572"
         d="m 316.58009,323.10454 c 1.2,-0.9 2.3,-1.9 3.4,-2.9 0.2,-0.5 0.4,-0.9 0.5,-1.4 2.2,-6 3.7,-12.1 4.6,-18.4 0.8,-6.3 1.1,-12.6 0.6,-18.9 -0.5,-6.3 -1.7,-12.5 -3.6,-18.5 -3.7,-12.1 -10.3,-23.2 -19,-32.4 -4.3,-4.6 -9.1,-8.8 -14.4,-12.4 -4.5,-3.2 -9.3,-5.9 -14.3,-8.2 -5.1,13.7 -8.1,37 6,54.2 1.4,1.7 2.9,3.3 4.6,4.8 0,0 -7,-22.9 -1.2,-34.2 0.9,-1.8 2.2,-3.3 3.8,-4.4 -3.9,3.9 -5.6,49.5 20.4,67.3 2.9,2 6.1,3.6 9.7,4.8 0,0 -12.2,-10.1 -12.3,-24.3 0,-1.3 0.1,-2.6 0.3,-4 12.6,1.7 20.4,28.3 10.9,48.9"
         style="fill:#fe8872;fill-opacity:0.94117647" />
    </g>
    <path
       inkscape:connector-curvature="0"
       style="fill:#ff9983;fill-opacity:1;stroke-width:0.16278192"
       d="m 37.144962,158.24705 c -0.419862,0.16893 -0.810683,0.44926 -1.11726,0.77898 -0.320626,0.3215 -0.579273,0.69821 -0.795784,1.09961 -0.432999,0.80284 -0.717413,1.67394 -0.951441,2.55572 -0.468048,1.76356 -0.706557,3.58623 -1.112628,5.405 -0.09595,0.45325 -0.214176,0.9123 -0.360479,1.35487 -0.154521,0.45665 -0.323128,0.90501 -0.614702,1.33789 -0.145814,0.21643 -0.319658,0.41642 -0.543905,0.60571 -0.107973,0.0876 -0.244093,0.1588 -0.380164,0.22996 -0.07503,0.0315 -0.14192,0.0489 -0.20873,0.0663 -0.04453,0.0117 -0.06678,0.0174 -0.111307,0.0291 l -0.08909,0.0232 c -0.406783,0.0823 -0.818407,0.23716 -1.036839,0.44875 -0.116203,0.10169 -0.168105,0.22223 -0.214085,0.36508 -0.04599,0.14288 -0.04412,0.33268 -0.0364,0.54478 0.0058,0.0223 -0.0024,0.0363 0.0034,0.0586 1.982256,1.67191 6.489444,2.89966 7.457588,5.33557 0.804995,2.03831 -0.701467,1.872 -2.966445,2.90263 0.01649,-0.0281 0.03293,-0.0562 0.05764,-0.0983 0.131747,-0.22467 0.243609,-0.47987 0.310965,-0.72343 0.151169,-0.51522 0.100885,-1.07308 -0.113563,-1.57624 -0.214457,-0.50317 -0.550942,-0.92693 -0.981376,-1.25483 -0.20818,-0.15987 -0.446894,-0.29985 -0.688063,-0.40349 -0.249356,-0.0897 -0.506982,-0.1652 -0.769442,-0.16813 0.520066,0.0785 0.99992,0.32216 1.394046,0.64763 0.39413,0.32548 0.73062,0.74924 0.911182,1.21366 0.194594,0.47266 0.247297,0.9942 0.132454,1.51184 -0.07218,0.31622 -0.186527,0.6077 -0.35121,0.88854 -0.263932,0.1283 -0.536107,0.27063 -0.816502,0.42699 -0.169972,0.0324 -0.345761,0.0426 -0.52155,0.0527 -0.387878,0.0178 -0.770913,-0.0369 -1.126806,-0.17014 -0.347651,-0.14729 -0.668221,-0.37295 -0.925314,-0.67469 -0.243038,-0.29349 -0.422643,-0.66301 -0.543644,-1.03589 -0.225549,-0.77386 -0.192016,-1.60338 -0.0074,-2.40089 0.09932,-0.39465 0.22093,-0.79511 0.384667,-1.17086 0.163759,-0.37573 0.363793,-0.74907 0.583713,-1.09188 -0.233981,0.33456 -0.46205,0.69146 -0.648105,1.07299 -0.185968,0.38158 -0.349817,0.75727 -0.457303,1.16601 -0.243204,0.8009 -0.337773,1.67011 -0.131117,2.50838 0.0963,0.415 0.26524,0.83487 0.533943,1.18114 0.268706,0.34629 0.620711,0.64706 1.038591,0.83549 0.31137,0.14479 0.641586,0.22527 0.982494,0.25535 -0.543375,0.37955 -1.099845,0.84581 -1.657784,1.44329 -2.740299,2.90314 -2.471835,4.89101 -3.19187,4.63862 -0.296193,-1.13609 -0.442261,-2.33511 -0.297783,-3.51471 -0.268426,1.06917 -0.24874,2.19408 -0.07311,3.27834 -0.276,-0.23732 -0.665268,-0.63544 -1.218193,-1.20499 -0.976098,-1.0064 -2.026382,-1.33925 -3.001158,-1.38247 0.0082,-0.0141 0.01649,-0.0281 0.02469,-0.0421 0.08817,-0.11813 0.170514,-0.25855 0.230559,-0.39317 0.142388,-0.27504 0.276545,-0.53604 0.382668,-0.81349 0.212153,-0.55492 0.354157,-1.15099 0.359092,-1.77083 0.01075,-0.59756 -0.165912,-1.22953 -0.558579,-1.68624 -0.189284,-0.22425 -0.4314,-0.4228 -0.684148,-0.57102 -0.252766,-0.14822 -0.5302,-0.25434 -0.8159,-0.34636 0.277434,0.10612 0.554919,0.21215 0.799389,0.37452 0.244503,0.16227 0.472575,0.35259 0.653643,0.59088 0.370385,0.4625 0.513148,1.05572 0.474318,1.63682 -0.02478,0.58932 -0.1866,1.15491 -0.418631,1.6793 -0.120096,0.26925 -0.25434,0.5302 -0.402553,0.78295 -0.07411,0.12638 -0.162279,0.24451 -0.250452,0.36265 -0.05519,0.0619 -0.0964,0.13217 -0.151629,0.19413 -0.767539,0.0217 -1.477953,0.17121 -2.076983,0.2917 -0.0852,-0.14433 -0.148142,-0.29444 -0.202831,-0.45861 -0.152483,-0.44795 -0.229881,-0.92737 -0.234654,-1.40193 -0.01881,-0.4828 0.035,-0.96073 0.167277,-1.41155 0.05913,-0.22952 0.154522,-0.45664 0.255768,-0.66144 0.109457,-0.21888 0.238795,-0.40722 0.404409,-0.59317 -0.356935,0.31907 -0.612195,0.75436 -0.774947,1.22505 -0.154512,0.45663 -0.216598,0.94861 -0.206012,1.44544 0.01882,0.4828 0.102031,0.9845 0.276779,1.42664 0.06291,0.15015 0.139907,0.30848 0.211067,0.44456 -0.997588,0.18872 -1.625647,0.19783 -1.55621,-0.95036 0,0 1.018653,1.35218 0.348669,-3.36207 -0.358443,-2.60675 0.886328,-4.31112 1.737309,-5.47271 -0.01979,-0.0305 -0.03385,-0.0387 -0.06189,-0.0552 -0.09584,-0.094 -0.194136,-0.15164 -0.322966,-0.18939 -0.128771,-0.0378 -0.274083,-0.0475 -0.449857,-0.0374 -0.161761,0.0184 -0.331718,0.0508 -0.509928,0.0973 -0.08909,0.0232 -0.178208,0.0465 -0.261504,0.092 l -0.164172,0.0547 c -0.06678,0.0174 -0.111257,0.029 -0.178203,0.0465 -0.250851,0.0416 -0.499271,0.0469 -0.73703,0.002 -0.237768,-0.0451 -0.459046,-0.11823 -0.672109,-0.20542 -0.41786,-0.18847 -0.766508,-0.43059 -1.084631,-0.69261 -0.650256,-0.53228 -1.217228,-1.11008 -1.792418,-1.67382 -0.575199,-0.56375 -1.142176,-1.14154 -1.750315,-1.64911 -0.608143,-0.50759 -1.277305,-0.97547 -2.000707,-1.28649 -0.723432,-0.31096 -1.5456414,-0.45348 -2.3485514,-0.33932 0.799524,-0.17275 1.6406504,-0.0947 2.4028064,0.18244 0.776218,0.28533 1.470072,0.71108 2.131029,1.19296 0.66093,0.48193 1.266629,1.02583 1.880582,1.55568 0.613951,0.52986 1.20562,1.06552 1.846695,1.51693 0.320519,0.22575 0.643477,0.41513 0.985339,0.54013 0.341853,0.125 0.674522,0.16911 0.964112,0.0936 l 0.111394,-0.029 0.105578,-0.0514 c 0.09728,-0.0372 0.202908,-0.0886 0.300244,-0.12586 0.208721,-0.0663 0.425676,-0.14667 0.654235,-0.18247 0.228582,-0.0358 0.485233,-0.0551 0.759313,-0.008 0.260048,0.0392 0.52103,0.17343 0.72923,0.33326 0.167179,-0.31712 0.212153,-0.55493 0.05096,-0.76268 -0.754809,-0.93325 0.933418,-1.84921 1.918347,-1.63018 2.277818,0.5243 4.53401,-3.3232 5.258569,-0.95464 0.01168,0.0445 0.02323,0.0891 0.05717,0.12777 0.103626,-0.24116 0.279961,-0.47742 0.479521,-0.62459 0.246514,-0.19511 0.50221,-0.30936 0.755483,-0.38728 0.253274,-0.0779 0.512355,-0.13358 0.740923,-0.16938 l 0.08084,-0.009 c 0.02231,-0.006 0.03637,0.002 0.05862,-0.003 0.04461,-0.0116 0.06683,-0.0175 0.111307,-0.0291 0.07503,-0.0315 0.150155,-0.0629 0.219382,-0.11666 0.152564,-0.0992 0.271219,-0.23725 0.39811,-0.38929 0.247955,-0.32636 0.428179,-0.73017 0.594352,-1.14224 0.166163,-0.41206 0.290196,-0.84884 0.414225,-1.28561 0.48208,-1.75532 0.829556,-3.57071 1.400745,-5.34928 0.292615,-0.88516 0.613321,-1.75384 1.118989,-2.55181 0.252851,-0.39897 0.525512,-0.76746 0.868415,-1.09475 0.379213,-0.32488 0.775851,-0.58292 1.215566,-0.72136"
       id="path1570" />
    <rect
       style="fill:#94dfac;fill-opacity:1;stroke:none;stroke-width:4.04839754;stroke-linecap:butt;stroke-linejoin:miter;stroke-miterlimit:4;stroke-dasharray:none;stroke-opacity:1;paint-order:stroke fill markers"
       id="rect1667"
       width="20.080612"
       height="23.515347"
       x="108.51221"
       y="85.559738" />
    <rect
       y="85.559738"
       x="131.93959"
       height="23.515347"
       width="20.080612"
       id="rect1669"
       style="fill:#4c4ad3;fill-opacity:1;stroke:none;stroke-width:4.04839754;stroke-linecap:butt;stroke-linejoin:miter;stroke-miterlimit:4;stroke-dasharray:none;stroke-opacity:1;paint-order:stroke fill markers" />
    <rect
       style="fill:#d493b9;fill-opacity:1;stroke:none;stroke-width:4.04839754;stroke-linecap:butt;stroke-linejoin:miter;stroke-miterlimit:4;stroke-dasharray:none;stroke-opacity:1;paint-order:stroke fill markers"
       id="rect1671"
       width="20.080612"
       height="23.515347"
       x="156.11069"
       y="85.559738" />
    <rect
       y="85.559738"
       x="179.90994"
       height="23.515347"
       width="20.080612"
       id="rect1673"
       style="fill:#e8e270;fill-opacity:1;stroke:none;stroke-width:4.04839754;stroke-linecap:butt;stroke-linejoin:miter;stroke-miterlimit:4;stroke-dasharray:none;stroke-opacity:1;paint-order:stroke fill markers" />
    <rect
       transform="scale(1,-1)"
       y="-115.79781"
       x="108.51221"
       height="4.0769157"
       width="91.412254"
       id="rect1675"
       style="fill:#00d4aa;fill-opacity:1;stroke:none;stroke-width:3.59655786;stroke-linecap:butt;stroke-linejoin:miter;stroke-miterlimit:4;stroke-dasharray:none;stroke-opacity:1;paint-order:stroke fill markers" />
    <flowRoot
       xml:space="preserve"
       id="flowRoot1677"
       style="font-style:normal;font-variant:normal;font-weight:normal;font-stretch:normal;font-size:14.66666698px;line-height:1.25;font-family:Arial;-inkscape-font-specification:Arial;letter-spacing:0px;word-spacing:0px;fill:#000000;fill-opacity:1;stroke:none"
       transform="matrix(0.26458333,0,0,0.26458333,0,23.147493)"><flowRegion
         id="flowRegion1679"
         style="font-style:normal;font-variant:normal;font-weight:normal;font-stretch:normal;font-size:14.66666698px;font-family:Arial;-inkscape-font-specification:Arial"><rect
           id="rect1681"
           width="302.51349"
           height="88.294441"
           x="44.446712"
           y="783.10846"
           style="font-style:normal;font-variant:normal;font-weight:normal;font-stretch:normal;font-size:14.66666698px;font-family:Arial;-inkscape-font-specification:Arial" /></flowRegion><flowPara
         id="flowPara1685"
         style="fill:#000000">Selecciona la cabeza del pez, que tiene un color más o menos negro, e intenta crear un color lo más parecido al color salmón del resto del cuerpo.</flowPara></flowRoot>    <path
       style="fill:none;stroke:#000000;stroke-width:0.26458332px;stroke-linecap:butt;stroke-linejoin:miter;stroke-opacity:1"
       d="M 104.62382,147.3494 V 87.099241"
       id="path1687"
       inkscape:connector-curvature="0"
       sodipodi:nodetypes="cc" />
    <path
       sodipodi:nodetypes="cc"
       inkscape:connector-curvature="0"
       id="path927"
       d="m 105.15836,250.51544 -0.53454,-77.88997"
       style="fill:none;stroke:#000000;stroke-width:0.26458332px;stroke-linecap:butt;stroke-linejoin:miter;stroke-opacity:1" />
    <circle
       style="fill:#7e7301;fill-opacity:1;stroke:none;stroke-width:13.05309772;stroke-linecap:butt;stroke-linejoin:miter;stroke-miterlimit:4;stroke-dasharray:none;stroke-opacity:1;paint-order:stroke fill markers"
       id="path929"
       cx="156.35268"
       cy="196.04869"
       r="33.408691" />
    <flowRoot
       transform="matrix(0.26458333,0,0,0.26458333,100.49334,30.631039)"
       style="font-style:normal;font-variant:normal;font-weight:normal;font-stretch:normal;font-size:14.66666698px;line-height:1.25;font-family:Arial;-inkscape-font-specification:Arial;letter-spacing:0px;word-spacing:0px;fill:#000000;fill-opacity:1;stroke:none"
       id="flowRoot937"
       xml:space="preserve"><flowRegion
         style="font-style:normal;font-variant:normal;font-weight:normal;font-stretch:normal;font-size:14.66666698px;font-family:Arial;-inkscape-font-specification:Arial"
         id="flowRegion933"><rect
           style="font-style:normal;font-variant:normal;font-weight:normal;font-stretch:normal;font-size:14.66666698px;font-family:Arial;-inkscape-font-specification:Arial"
           y="783.10846"
           x="44.446712"
           height="70.111694"
           width="340.89929"
           id="rect931" /></flowRegion><flowPara
         style="fill:#000000"
         id="flowPara935">Crea un color utilizando simultáneamente el modelo HSL y Rueda</flowPara></flowRoot>    <text
       xml:space="preserve"
       style="font-style:normal;font-variant:normal;font-weight:normal;font-stretch:normal;font-size:5.64444447px;line-height:1.25;font-family:'Felix Titling';-inkscape-font-specification:'Felix Titling';letter-spacing:0px;word-spacing:0px;fill:#000000;fill-opacity:1;stroke:none;stroke-width:0.26458332"
       x="8.9912109"
       y="265.67578"
       id="text931"><tspan
         sodipodi:role="line"
         id="tspan929"
         x="8.9912109"
         y="265.67578"
         style="font-style:normal;font-variant:normal;font-weight:normal;font-stretch:normal;font-size:5.64444447px;font-family:'Felix Titling';-inkscape-font-specification:'Felix Titling';stroke-width:0.26458332">Manuel Alejandro Fierro Cantu</tspan></text>
    <flowRoot
       xml:space="preserve"
       id="flowRoot933"
       style="font-style:normal;font-weight:normal;font-size:40px;line-height:1.25;font-family:sans-serif;letter-spacing:0px;word-spacing:0px;fill:#000000;fill-opacity:1;stroke:none"
       transform="matrix(0.26458333,0,0,0.26458333,0,-30)"><flowRegion
         id="flowRegion935"><rect
           id="rect938"
           width="362.84573"
           height="41.655983"
           x="42.752216"
           y="1119.7072" /></flowRegion><flowPara
         id="flowPara940">Ingfasfasf</flowPara></flowRoot>    <text
       xml:space="preserve"
       style="font-style:normal;font-variant:normal;font-weight:normal;font-stretch:normal;font-size:5.64444447px;line-height:1.25;font-family:'Felix Titling';-inkscape-font-specification:'Felix Titling';letter-spacing:0px;word-spacing:0px;fill:#000000;fill-opacity:1;stroke:none;stroke-width:0.26458332"
       x="8.9912109"
       y="273.79684"
       id="text944"><tspan
         sodipodi:role="line"
         id="tspan942"
         x="8.9912109"
         y="273.79684"
         style="font-style:normal;font-variant:normal;font-weight:normal;font-stretch:normal;font-size:5.64444447px;font-family:'Felix Titling';-inkscape-font-specification:'Felix Titling';stroke-width:0.26458332">Ing Informática - Iniciación a la animación</tspan></text>
    <text
       xml:space="preserve"
       style="font-style:normal;font-variant:normal;font-weight:normal;font-stretch:normal;font-size:5.64444447px;line-height:1.25;font-family:'Felix Titling';-inkscape-font-specification:'Felix Titling';letter-spacing:0px;word-spacing:0px;fill:#000000;fill-opacity:1;stroke:none;stroke-width:0.26458332"
       x="8.7011719"
       y="281.33789"
       id="text948"><tspan
         sodipodi:role="line"
         id="tspan946"
         x="8.7011719"
         y="281.33789"
         style="font-style:normal;font-variant:normal;font-weight:normal;font-stretch:normal;font-size:5.64444447px;font-family:'Felix Titling';-inkscape-font-specification:'Felix Titling';stroke-width:0.26458332">Practica 3.2 Modelo Rueda</tspan></text>
    <text
       xml:space="preserve"
       style="font-style:normal;font-variant:normal;font-weight:normal;font-stretch:normal;font-size:5.64444447px;line-height:1.25;font-family:'Felix Titling';-inkscape-font-specification:'Felix Titling';letter-spacing:0px;word-spacing:0px;fill:#000000;fill-opacity:1;stroke:none;stroke-width:0.26458332"
       x="8.4111328"
       y="288.00879"
       id="text952"><tspan
         sodipodi:role="line"
         id="tspan950"
         x="8.4111328"
         y="288.00879"
         style="font-style:normal;font-variant:normal;font-weight:normal;font-stretch:normal;font-size:5.64444447px;font-family:'Felix Titling';-inkscape-font-specification:'Felix Titling';stroke-width:0.26458332">Software InkScape</tspan></text>
  </g>
</svg>
